<?xml version="1.0" encoding="UTF-8"?>
<svg version="1.1" viewBox="0 0 1600 1600" width="1280" height="1280" xmlns="http://www.w3.org/2000/svg">
<path transform="translate(0)" d="m0 0h1600v1600h-1600v-1600z" fill="#FCFEFE"/>
<path transform="translate(596 466)" d="m0 0c1.85-0 3.69-0.01 5.54-0.01 5.03-0.01 10.1 0 15.1 0.01 5.44 0.01 10.9-0 16.3-0.01 10.6-0.01 21.3 0 31.9 0.01 12.4 0.01 24.8 0.01 37.2 0.01 22.8 0 45.6 0.01 68.4 0.03 20.8 0.02 41.6 0.02 62.4 0.02h4.01 2c21.4-0.01 42.8-0.01 64.2 0 2.5 0.01 4.99 0.01 7.48 0.01h3.72 25.9c10.5 0 21 0 31.6 0.02 5.37 0.01 10.7 0.01 16.1 0.01 4.92-0.01 9.84 0 14.8 0.01h5.33c17.1-0.04 17.1-0.04 25.4 2.26 0.66 0.18 1.31 0.36 1.99 0.54 13.5 3.83 23.5 10.3 34 19.5 1.1 0.96 1.1 0.96 2.23 1.94 13.1 12.1 21 32.4 21.8 50.1 0.75 22.9 0.75 22.9-4 30-0.14 0.77-0.29 1.53-0.44 2.32-0.68 3.25-2 5.75-3.56 8.68-0.68 1.46-0.68 1.46-1.37 2.94-1.95 3.66-4.08 6.8-6.63 10.1h-2c-0.07 0.58-0.15 1.16-0.22 1.75-1.05 3.04-2.71 4.26-5.15 6.32-2.64 2.24-5.21 4.46-7.63 6.93-5.89 5.22-12.4 8.03-19.9 10.2-2.17 0.73-2.17 0.73-4.04 2.35-6.28 4.48-18.7 2.58-26.2 2.64-1.04 0.01-2.07 0.03-3.13 0.04h-2.94c-0.88 0.01-1.76 0.01-2.66 0.02-2.15-0.25-2.15-0.25-4.15-2.25 0.19-0.55 0.39-1.11 0.59-1.68 1.73-5.07 3.15-10.1 4.41-15.3 1.29-4.91 2.66-9.49 5-14 3.01-1.2 6.23-1.21 9.43-1.49 10.9-1.02 20.8-4.41 28.6-12.5 3.87-5.35 7.3-10.6 9-17l-1-2h3c0.37-16.1-0.23-30.7-12-43-6.22-6.22-14-11.3-23-12-0.11 0.54-0.23 1.08-0.35 1.64-1.94 7.06-5.32 13.9-8.65 20.4-2.46 5.36-4.28 10.8-6.03 16.4-0.97 2.57-0.97 2.57-2.97 4.57-0.57 1.97-0.57 1.97-0.94 4.19-1.11 5.43-3.26 10.1-5.62 15.1-1.47 3.77-2.19 7.3-2.91 11.3-0.74 3.41-2.07 6.26-3.53 9.42-0.93 2.63-1.81 5.22-2.46 7.92-0.55 2.13-1.24 4.14-1.98 6.21-1.41 4.15-2.29 8.29-3.09 12.6-0.59 2.86-1.49 5.54-2.47 8.28-1.71 5.37-2.63 10.7-3.44 16.2-0.56 2.77-0.56 2.77-1.59 4.83-1.19 2.39-1.27 4.28-1.41 6.94-0.3 4.16-0.97 7.93-2.06 11.9-1.38 5.13-1.92 10-2.25 15.3-0.22 2.48-0.65 4.67-1.31 7.07-0.95 3.72-1.01 6.87-0.94 10.7l-1 2c-0.36 3.35-0.47 6.71-0.62 10.1-0.05 0.93-0.11 1.87-0.16 2.83-0.04 0.89-0.09 1.78-0.13 2.7-0.04 0.82-0.08 1.64-0.13 2.49-0.18 1.92-0.18 1.92 1.04 2.91 2.24 0.08 4.48 0.09 6.72 0.07 1.05-0.01 1.05-0.01 2.13-0.01 1.53-0.01 3.06-0.03 4.59-0.04 2.43-0.02 4.85-0.04 7.28-0.05 6.9-0.03 13.8-0.07 20.7-0.14 4.22-0.03 8.44-0.06 12.6-0.07 1.61-0.01 3.21-0.02 4.82-0.04 2.25-0.03 4.5-0.04 6.76-0.04 1.28-0.01 2.56-0.02 3.88-0.03 5.05 0.51 8.3 2.42 12.2 5.54 3.82 4.78 4.52 9.57 4.19 15.5-0.66 4.48-2.36 6.47-5.94 9.31-0.99 1.05-0.99 1.05-1.99 2.13-4.5 2.81-8.63 2.31-13.8 2.12-0.98-0.01-1.96-0.03-2.97-0.05-2.41-0.05-4.81-0.11-7.22-0.2 0.32 37.5 0.32 37.5 8 74 1.1 3.81 2.12 7.64 3.15 11.5 1.08 3.96 2.23 7.76 3.85 11.5 1.36 3.69 2 6.02 2 10h2c0.29 0.66 0.58 1.31 0.88 1.99 6.29 14.3 6.29 14.3 14.9 27.2 1.94 2.81 2.57 5.51 3.26 8.82h2c2 3 2 3 2 6 0.61 0.26 1.21 0.51 1.84 0.77 2.48 1.41 3.34 2.61 4.79 5.05 0.42 0.71 0.84 1.41 1.28 2.15 1.09 2.03 1.09 2.03 2.22 4.97 0.29 0.68 0.57 1.36 0.87 2.06 0.99 0.33 1.98 0.66 3 1 5 5.47 5 5.47 5 8 0.99 0.33 1.98 0.66 3 1v2c0.84 0.31 0.84 0.31 1.69 0.63 2.58 1.53 4.05 3.39 5.89 5.73 2.04 2.36 4.38 4.27 6.77 6.26 2.02 1.69 3.9 3.42 5.65 5.38v2c0.84 0.38 0.84 0.38 1.69 0.75 2.74 1.48 4.99 3.19 7.31 5.25v2c0.9 0.44 0.9 0.44 1.81 0.88 2.19 1.12 2.19 1.12 5.19 3.12v2c0.71 0.23 1.41 0.46 2.14 0.69 3.5 1.61 5.84 3.71 8.67 6.31 0.98 0.89 1.96 1.78 2.96 2.69 2.23 2.31 2.23 2.31 2.23 4.31h2c2.49 4.98 4.09 9.37 3 15-1.95 5.25-4.6 9.92-9.85 12.4-7.36 2-14.5 1.2-21.2-2.42v-2c-0.76-0.28-1.52-0.57-2.31-0.87-2.69-1.13-2.69-1.13-5.69-3.13v-2c-0.72-0.22-1.44-0.45-2.19-0.68-3.37-1.58-5.19-3.67-7.81-6.32-1.75-1.48-3.52-2.94-5.31-4.37-17.5-14.2-17.5-14.2-19.8-18.8-1.22-2.35-2.61-2.69-4.94-3.82l-1-3h-2c-1.52-1.67-2.97-3.41-4.37-5.18-0.77-0.97-1.55-1.93-2.34-2.92-0.75-0.96-1.51-1.91-2.29-2.9-1.93-2.44-3.88-4.85-5.9-7.22-5.1-6.01-9.65-12.3-14.1-18.8-0.57-0.83-1.15-1.67-1.74-2.53-4.13-6.08-4.13-6.08-5.26-9.47h-21v3l2 1c1.37 2.28 2.67 4.55 3.94 6.88 2.97 5.47 2.97 5.47 7.06 10.1 0.67 1.67 1.33 3.34 2 5 0.52 0.52 1.03 1.04 1.56 1.57 1.74 1.73 2.03 3.06 2.44 5.43h2l2 5h2c0.96 1.37 1.9 2.74 2.79 4.15 1.82 2.79 3.89 5.39 5.94 8.02 2.32 3.35 2.43 6.32 2.46 10.3 0.01 0.95 0.03 1.9 0.04 2.87-0.3 3.53-1.17 5.63-3.67 8.14-6.04 4.79-9.92 5.27-17.6 4.55-6.81-1.85-10.8-6.57-15-12-0.56-0.7-1.12-1.4-1.7-2.12-1.3-1.88-1.3-1.88-1.3-3.88h-2c-1.04-1.39-1.04-1.39-2.19-3.37-2.52-4.23-5.3-8.22-8.16-12.2-1.66-2.41-3.15-4.88-4.65-7.4-1.1-1.68-2.2-3.37-3.31-5.06-3.15-4.91-5.81-9.95-8.33-15.2-1.33-2.67-2.82-5.17-4.36-7.73-1.48-2.97-1.48-2.97-3-6-164-0.49-164-0.49-332-1l-2 6c-0.81 1.65-1.67 3.27-2.56 4.86-0.49 0.87-0.98 1.74-1.48 2.63s-1 1.78-1.52 2.7c-1 1.79-2.01 3.57-3 5.36-0.67 1.17-0.67 1.17-1.35 2.37-1.21 2.18-1.21 2.18-2.09 5.08h-2c-0.27 0.97-0.53 1.94-0.81 2.94-0.39 1.01-0.78 2.02-1.19 3.06-0.99 0.33-1.98 0.66-3 1-0.33 1.16-0.66 2.31-1 3.5-0.33 1.16-0.66 2.31-1 3.5-0.99 0.33-1.98 0.66-3 1l-2 6c-0.99 0.33-1.98 0.66-3 1-1.12 2.35-1.12 2.35-2 5-0.65 1.34-1.31 2.68-2 4h-2c-0.27 0.81-0.53 1.61-0.81 2.44-0.39 0.85-0.78 1.69-1.19 2.56-0.99 0.33-1.98 0.66-3 1-0.29 0.81-0.58 1.61-0.87 2.44-1.13 2.56-1.13 2.56-3.75 3.88-0.79 0.22-1.57 0.45-2.38 0.68v2c-5.64 1.88-11.8 1.75-17.4-0.12-4.08-2.92-6.95-5.36-8.27-10.2-1-7.14 0.76-12.2 4.98-18 0.86-1.09 1.73-2.19 2.6-3.27 0.64-0.82 0.64-0.82 1.3-1.66 1.97-2.49 3.96-4.96 5.96-7.43 2.1-2.67 3.93-5.45 5.8-8.29 0.83-1.14 1.67-2.29 2.5-3.43 2.02-2.81 3.78-5.7 5.46-8.74 1.55-2.71 3.27-5.32 4.99-7.93 1.3-2.15 1.3-2.15 2.05-5.9l-21 1-2 5c-2 3.32-2 3.32-4 6h-2c-0.27 0.73-0.53 1.46-0.81 2.2-1.18 2.77-2.53 5.11-4.19 7.62-0.51 0.79-1.03 1.58-1.56 2.39-0.48 0.59-0.95 1.18-1.44 1.79h-2c-0.34 1.06-0.34 1.06-0.69 2.13-1.65 3.62-3.6 5.96-6.31 8.87h-2c-0.23 0.54-0.45 1.08-0.69 1.63-1.76 3.2-3.85 5.66-6.31 8.37h-2v2h-2l-1 3h-2v3c-0.78 0.25-1.57 0.5-2.37 0.75-3.04 1.45-3.3 2.31-4.63 5.25-0.99 0.33-1.98 0.66-3 1v3c-0.78 0.25-1.57 0.5-2.37 0.75-3.06 1.46-3.22 2.33-4.63 5.25-2.12 0.75-2.12 0.75-4 1-0.04 0.58-0.08 1.16-0.12 1.75-1.33 3.42-3.78 4.48-6.88 6.25h-2v2c-2.03 1.71-4.06 3.31-6.19 4.88-1.16 0.87-2.32 1.74-3.48 2.62-0.56 0.42-1.13 0.84-1.71 1.27-1.47 1.12-2.89 2.3-4.29 3.49-5.28 3.95-12 3.2-18.3 2.74-5.3-1.73-7.76-4.64-11-9-2.4-4.79-1.34-10.9 0.19-15.8 2.69-4.72 6.27-8.21 10.8-11.2h2c0.25-0.61 0.5-1.23 0.75-1.87 1.51-2.57 2.61-2.84 5.25-4.13 0.76-0.76 1.53-1.52 2.31-2.31 2.07-2.06 3.83-3.56 6.19-5.19 3.19-2.21 5.82-4.67 8.5-7.5 1.63-1.7 3.29-3.38 5-5h2c0.25-0.55 0.5-1.11 0.75-1.68 2.32-4.3 5.28-7.4 9-10.5 7.66-6.58 13.3-15.2 19.3-23.2 1.58-2.04 3.15-3.77 4.98-5.57 2.3-3.24 2.3-3.24 3-7l2-1c2.94-4.48 5.41-9.3 8-14 0.51-0.91 1.03-1.83 1.55-2.78 2.76-4.99 5.3-9.93 7.45-15.2 0.63-1.35 1.25-2.7 1.88-4.06 5.81-13.1 10.7-27.1 12.6-41.3 0.49-2.66 0.49-2.66 1.48-5.12 2.7-6.79 2.34-14.4 2.62-21.5 0.03-0.87 0.07-1.74 0.11-2.64 0.03-0.79 0.06-1.57 0.09-2.39 0.19-1.97 0.19-1.97 1.19-3.97 0.1-2.09 0.13-4.19 0.13-6.28 0.01-1.25 0.01-2.51 0.01-3.8-0.01-1.31-0.01-2.62-0.01-3.98 0-1.32 0-2.63 0.01-3.99 0-1.25 0-2.5-0.01-3.79v-3.5c0.17-2.58 0.17-2.58-1.13-3.66-2 0.01-4 0.06-6 0.13-8.39 0.05-15.5-1.56-22-7.13-2.72-5.08-3.05-11.4-2-17 2.95-5.13 6.41-8.12 12-10 2.29-0.28 4.6-0.48 6.9-0.61 0.99-0.06 0.99-0.06 1.99-0.12 6.9-0.36 13.8-0.39 20.7-0.36h3.97c3.43 0 6.86 0.01 10.3 0.03 3.52 0.01 7.04 0.01 10.6 0.02 6.86 0.01 13.7 0.02 20.6 0.04l0.03-4.32c0-1.21 0-1.21 0.01-2.43-0.04-2.57-0.42-4.93-0.98-7.43-0.85-4.29-1.3-8.45-1.56-12.8-0.31-5.11-0.95-9.97-1.96-15-0.81-4.51-1.29-9.06-1.75-13.6-0.4-3.52-0.78-5.39-2.79-8.4-0.34-2.7-0.34-2.7-0.5-5.81-0.3-4.42-0.92-8.02-2.5-12.2-1.69-6.27-2.49-12.5-3-19h-2c-0.11-0.61-0.22-1.23-0.33-1.87-0.94-5.04-2.14-9.8-3.84-14.6-0.95-2.85-1.73-5.72-2.52-8.62-7.72-27.3-17.6-56-30.6-81.3-1.75-3.57-1.75-3.57-1.75-5.57-7.3-0.74-14.1 2.92-20 7-3.05 2.77-5.43 5.16-7 9h-2c-0.27 0.89-0.53 1.78-0.81 2.69-1.19 3.31-1.19 3.31-2.75 5.56-4.38 8.38-3.46 22.6-1.44 31.8 1.13 2.8 2.51 5.38 4 8 0.43 1 0.43 1 0.87 2.01 1.4 2.46 3.07 3.84 5.26 5.62 1.32 1.08 2.63 2.2 3.87 3.37v2c0.74 0.28 1.48 0.56 2.24 0.85 2.5 1.05 4.63 2.27 6.95 3.65 5.64 2.97 11.3 3.27 17.6 3.34 2.31 0.12 4.09 0.3 6.24 1.16 2.01 2.44 2.99 5.04 4 8 0.4 1.05 0.79 2.1 1.2 3.17 2.32 7.55 3.83 15 4.8 22.8-8.84 1.6-17.4 1.09-26.2 0.19-0.75-0.07-1.51-0.14-2.29-0.21-4.98-0.55-8.9-1.79-13.5-3.98-1.43-0.64-2.86-1.29-4.3-1.93-1.48-0.69-2.96-1.38-4.45-2.07-0.75-0.34-1.51-0.68-2.28-1.03-0.73-0.34-1.46-0.68-2.2-1.03-0.65-0.3-1.31-0.6-1.98-0.91-1.96-1.12-3.27-2.37-4.79-4.03-3.01-3.22-3.01-3.22-7-5-3.41-3.06-5.7-6.06-8-10-1.17-1.36-1.17-1.36-2.37-2.75-5.34-6.37-8.22-13.4-10.9-21.2-0.26-0.74-0.52-1.49-0.78-2.26-2.67-8.14-3.25-16.2-2.97-24.7 0.01-0.78 0.01-1.57 0.02-2.37 0.4-9.35 3.84-17.9 6.98-26.6h2c0.19-1.36 0.19-1.36 0.38-2.75 0.54-2.84 1.19-4.77 2.62-7.25h2c0.26-0.72 0.52-1.45 0.79-2.2 3.95-9.09 12.2-16.3 20.2-21.8 2.33-0.74 2.33-0.74 4-1v-2c2.68-1.29 5.37-2.55 8.06-3.81 1.1-0.53 1.1-0.53 2.22-1.08 13.3-6.12 27-6.55 41.4-6.48z" fill="#E6492A"/>
<path transform="translate(596 466)" d="m0 0c1.85-0 3.69-0.01 5.54-0.01 5.03-0.01 10.1 0 15.1 0.01 5.44 0.01 10.9-0 16.3-0.01 10.6-0.01 21.3 0 31.9 0.01 12.4 0.01 24.8 0.01 37.2 0.01 22.8 0 45.6 0.01 68.4 0.03 20.8 0.02 41.6 0.02 62.4 0.02h4.01 2c21.4-0.01 42.8-0.01 64.2 0 2.5 0.01 4.99 0.01 7.48 0.01h3.72 25.9c10.5 0 21 0 31.6 0.02 5.37 0.01 10.7 0.01 16.1 0.01 4.92-0.01 9.84 0 14.8 0.01h5.33c17.1-0.04 17.1-0.04 25.4 2.26 0.66 0.18 1.31 0.36 1.99 0.54 13.5 3.83 23.5 10.3 34 19.5 1.1 0.96 1.1 0.96 2.23 1.94 13.1 12.1 21 32.4 21.8 50.1 0.75 22.9 0.75 22.9-4 30-0.14 0.77-0.29 1.53-0.44 2.32-0.68 3.25-2 5.75-3.56 8.68-0.68 1.46-0.68 1.46-1.37 2.94-1.95 3.66-4.08 6.8-6.63 10.1h-2c-0.07 0.58-0.15 1.16-0.22 1.75-1.05 3.04-2.71 4.26-5.15 6.32-2.64 2.24-5.21 4.46-7.63 6.93-5.89 5.22-12.4 8.03-19.9 10.2-2.17 0.73-2.17 0.73-4.04 2.35-6.28 4.48-18.7 2.58-26.2 2.64-1.04 0.01-2.07 0.03-3.13 0.04h-2.94c-0.88 0.01-1.76 0.01-2.66 0.02-2.15-0.25-2.15-0.25-4.15-2.25 0.19-0.55 0.39-1.11 0.59-1.68 1.73-5.07 3.15-10.1 4.41-15.3 1.29-4.91 2.66-9.49 5-14 3.01-1.2 6.23-1.21 9.43-1.49 10.9-1.02 20.8-4.41 28.6-12.5 3.87-5.35 7.3-10.6 9-17l-1-2h3c0.37-16.1-0.23-30.7-12-43-6.22-6.22-14-11.3-23-12-0.11 0.54-0.23 1.08-0.35 1.64-1.94 7.06-5.32 13.9-8.65 20.4-2.46 5.36-4.28 10.8-6.03 16.4-0.97 2.57-0.97 2.57-2.97 4.57-0.57 1.97-0.57 1.97-0.94 4.19-1.11 5.43-3.26 10.1-5.62 15.1-1.47 3.77-2.19 7.3-2.91 11.3-0.74 3.41-2.07 6.26-3.53 9.42-0.93 2.63-1.81 5.22-2.46 7.92-0.55 2.13-1.24 4.14-1.98 6.21-1.4 4.15-2.28 8.27-3.09 12.6-0.82 4.05-1.52 7.36-4.47 10.3 0.09-0.71 0.17-1.42 0.26-2.15 0.1-0.92 0.2-1.84 0.3-2.78 0.11-0.92 0.21-1.84 0.32-2.78 0.04-0.75 0.08-1.51 0.12-2.29l-1-1c-0.04-1.66-0.04-3.33 0-5l-4 1 1-3 2-1c0.66-2.52 0.66-2.52 1-5-1.37-0.05-1.37-0.05-4 1l1 4h-5c0.21 0.58 0.41 1.16 0.63 1.75 0.47 2.83-0.25 3.8-1.63 6.25-0.37 1.33-0.71 2.66-1 4l-5-1c0.52-4.44 1.66-7.23 4-11v-3l-2-2c0.35-0.57 0.7-1.15 1.06-1.75 1.17-2.16 1.17-2.16 0.44-4.18-0.5-2.07-0.5-2.07 0.44-4.38 1.32-3.34 1.2-6.13 1.06-9.69-0.12 0.71-0.24 1.42-0.37 2.16-0.16 0.92-0.33 1.83-0.5 2.78-0.25 1.38-0.25 1.38-0.5 2.78-0.2 0.75-0.41 1.51-0.63 2.28l-2 1c0.02-1.1 0.02-1.1 0.04-2.23 0.01-0.97 0.01-1.95 0.02-2.95 0.02-1.45 0.02-1.45 0.04-2.92-0.09-2.76-0.52-5.21-1.1-7.9v-5c-0.26 0.56-0.53 1.11-0.8 1.68-0.36 0.73-0.71 1.45-1.07 2.2-0.35 0.72-0.7 1.44-1.06 2.18-1.07 1.94-1.07 1.94-3.07 3.94-0.69 2-1.36 4-2 6l-1 1c-0.54 3.03-0.96 6.07-1.4 9.12-0.6 2.88-0.6 2.88-2.6 5.88-0.54 2.28-1.01 4.58-1.44 6.88-0.25 1.35-0.51 2.7-0.77 4.05-0.13 0.68-0.26 1.36-0.39 2.06-0.6 3.04-1.27 6.06-1.96 9.08-0.34 1.5-0.34 1.5-0.69 3.03-0.75 2.9-0.75 2.9-1.72 5.61-1.43 4.59-2.17 9.24-2.97 14-0.17 1.01-0.34 2.01-0.52 3.05-1.27 7.49-2.47 15-3.59 22.5-0.84 5.55-0.84 5.55-1.95 7.76-0.21 2.67-0.37 5.33-0.5 8-0.36 7.73-0.36 7.73-1.5 10-0.15 1.45-0.25 2.9-0.31 4.36-0.05 0.85-0.09 1.7-0.13 2.57-0.04 0.89-0.08 1.78-0.12 2.7-0.04 0.9-0.09 1.79-0.13 2.72-0.11 2.22-0.21 4.44-0.31 6.65-5.19 2.11-9.72 2.31-15.2 2.31-0.87 0-1.74 0-2.64 0.01h-5.51c-2.81 0-5.62 0.02-8.43 0.05h-5.36c-0.84 0.01-1.68 0.02-2.54 0.03-5.85-0.05-5.85-0.05-8.01-1.76-1.87-2.4-1.63-4.25-1.61-7.26 0.01-1.1 0.01-2.2 0.02-3.33 0.02-1.15 0.04-2.3 0.06-3.48 0.01-1.15 0.01-2.29 0.02-3.47 0.08-8.9 0.08-8.9 1.23-13.1 0.07-2.49 0-4.97-0.06-7.46 0.06-2.54 0.06-2.54 0.54-4.77 0.6-3.18 0.8-6.27 0.99-9.49 0.07-1.28 0.15-2.56 0.23-3.88 0.12-2.02 0.24-4.03 0.35-6.05 0.11-1.96 0.23-3.92 0.35-5.88 0.1-1.76 0.1-1.76 0.21-3.54 0.39-2.93 0.39-2.93 2.39-5.93 0.43-2.4 0.43-2.4 0.56-5.06 0.08-0.97 0.15-1.94 0.23-2.94 0.07-0.99 0.14-1.98 0.21-3 0.16-1.85 0.33-3.7 0.5-5.56 0.07-0.8 0.15-1.61 0.22-2.44 0.28-2 0.28-2 1.28-4h2c-0.18-0.7-0.36-1.41-0.55-2.14-0.49-3.15-0.22-5.47 0.33-8.6 0.18-1.09 0.37-2.17 0.56-3.29 0.29-1.68 0.29-1.68 0.6-3.4 0.39-2.23 0.77-4.46 1.15-6.69 0.18-0.98 0.35-1.97 0.53-2.98 0.45-2.94 0.45-2.94 0.37-6.13 0.01-2.97 0.69-4.19 2.01-6.77 0.03-2.27 0.03-2.27-0.37-4.56-0.56-3.85-0.89-6.66 0.37-10.4l-2-1c-2.61 0.9-2.61 0.9-5 2v2c-0.78 0.31-1.57 0.62-2.37 0.94-2.55 0.99-2.55 0.99-4.63 2.06-3.2-7.13-3.2-7.13-2.19-11.5 0.4-0.82 0.79-1.65 1.19-2.5l-1 1-1-3-2-1c-1-3-1-3 0-6 0.16-3.05 0.16-3.05-1-6v3c-1.48 0.5-1.48 0.5-3 1-2.5 5.53-3.68 10.9-4.56 16.9-1.17 7.86-1.17 7.86-3.44 10.1-0.27 2.09-0.53 4.18-0.72 6.28-0.31 3.07-0.74 6.11-1.22 9.16-0.15 1.01-0.3 2.02-0.46 3.06-0.6 2.5-0.6 2.5-2.6 4.5-0.52 2.49-0.52 2.49-0.78 5.38-0.12 1.07-0.24 2.13-0.36 3.23-0.12 1.12-0.24 2.24-0.36 3.39-0.23 2.21-0.47 4.42-0.72 6.63-0.15 1.47-0.15 1.47-0.31 2.98-0.47 2.39-0.47 2.39-2.47 4.39-0.44 1.96-0.44 1.96-0.6 4.22-0.08 0.85-0.15 1.7-0.24 2.58-0.07 0.89-0.14 1.79-0.22 2.7-0.16 1.74-0.32 3.48-0.47 5.22-0.25 2.7-0.48 5.4-0.68 8.1-0.07 0.9-0.15 1.79-0.22 2.72-0.06 0.81-0.12 1.62-0.19 2.45-0.38 2.01-0.38 2.01-2.38 4.01-0.39 2.86-0.66 5.64-0.85 8.51-0.06 0.86-0.13 1.72-0.19 2.61-0.21 2.82-0.4 5.63-0.58 8.45-0.07 0.95-0.14 1.89-0.2 2.87-1.04 14.9-1.46 29.6-1.18 44.6l-21 1v2c-1.77 0.17-3.54 0.34-5.31 0.5-0.99 0.1-1.97 0.19-2.99 0.29-2.7 0.21-2.7 0.21-5.7 0.21-0.34-1.74-0.67-3.5-1-5.25-0.18-0.97-0.37-1.94-0.56-2.95-0.44-2.8-0.44-2.8-0.44-6.8l-2 3c-2-3-2-3-2-6-5.08-0.11-5.08-0.11-10 1l1-3-1-1c-1.34 0.32-2.67 0.65-4 1h-3l-1-1c-0.09 1.47-0.09 1.47-0.19 2.96-0.98 10.2-0.98 10.2-3.32 12.6-1.8 0.75-1.8 0.75-5.49 1.43-0.8 0.18-1.6 0.36-2.43 0.54-2.52 0.45-4.81 0.59-7.37 0.6h-2.71c-1.39 0-1.39 0-2.8-0.01-1.37 0.01-1.37 0.01-2.76 0.01-5.39-0.01-10.6-0.17-15.9-1.14-1.61-3.22-1.22-6.75-1.28-10.3-0.02-0.83-0.04-1.66-0.06-2.51-0.05-2.65-0.11-5.3-0.16-7.95-0.07-3.47-0.14-6.94-0.22-10.4-0.02-1.19-0.02-1.19-0.04-2.4-0.09-4.24-0.44-8.25-1.24-12.4-0.27-2.83-0.5-5.67-0.72-8.51-0.21-2.61-0.21-2.61-1.28-5.49-0.24-1.97-0.44-3.95-0.61-5.93-0.11-1.2-0.22-2.39-0.34-3.63-0.12-1.28-0.24-2.55-0.36-3.87-0.95-9.75-2.19-19.3-4.27-28.8-1.36-6.23-2.24-12.4-2.93-18.8-0.32-2.87-0.32-2.87-1.45-4.85-1.62-3.31-1.97-6.88-2.54-10.5-0.8-5.09-1.85-9.73-3.5-14.6-0.35-2.11-0.67-4.24-0.94-6.37-0.65-4.49-1.52-8.36-3.27-12.5-2.42-6.42-3.72-13.3-4.79-20.1h-2c0.22 1.03 0.43 2.05 0.66 3.11l0.84 4.08c0.14 0.68 0.29 1.35 0.44 2.04 0.74 3.65 1.24 7.05 1.06 10.8h2c0.06 0.61 0.12 1.21 0.19 1.83 0.08 0.8 0.16 1.6 0.25 2.42 0.08 0.79 0.16 1.58 0.25 2.39 0.29 2.2 0.77 4.22 1.31 6.36 0.4 2.21 0.77 4.42 1.13 6.63 0.18 1.15 0.37 2.29 0.57 3.48 0.3 2.89 0.3 2.89-0.7 4.89l2 1-2 4c-0.13-0.78-0.26-1.56-0.4-2.37-0.27-1.51-0.27-1.51-0.54-3.06-0.17-1.01-0.34-2.02-0.52-3.06-0.29-2.43-0.29-2.43-1.54-3.51-2.8 2.07-3.03 3.15-3.69 6.69-0.15 1.64-0.15 1.64-0.31 3.31l4 2c0.31 2.25 0.31 2.25 0 5-2.25 2.38-2.25 2.38-5 4-2.31-0.25-2.31-0.25-4-1v-3c-0.6 0.07-1.2 0.14-1.83 0.22-2.51 0.17-4.69 0.22-7.17-0.22-2.56-3-2.56-3-4-6-0.99 0.5-0.99 0.5-2 1 0.29 1.4 0.58 2.8 0.88 4.19 0.24 1.17 0.24 1.17 0.49 2.36 0.57 2.48 0.57 2.48 1.64 4.82 1.2 3.19 1.62 6.2 2.05 9.57 0.3 7.54 0.3 7.54 2.94 14.1 0.29 3.2 0.45 6.4 0.62 9.61 0.38 3.41 1.28 6.16 2.38 9.39 0.43 2.43 0.81 4.87 1.13 7.32 0.13 0.98 0.13 0.98 0.26 1.99 0.45 3.65 0.7 7.2 0.61 10.9 0 3.82 0.4 4.63 2 7.81 2.09 11.2 1.11 23.4 1.06 34.8 0 2.07-0.01 4.13-0.01 6.2-0.01 5.02-0.03 10-0.05 15-6.51 0.05-13 0.09-19.5 0.11-2.22 0.01-4.44 0.03-6.65 0.05-3.19 0.02-6.37 0.03-9.55 0.04-1.49 0.02-1.49 0.02-3.02 0.03h-2.79c-0.81 0.01-1.62 0.01-2.46 0.01-1.99-0.24-1.99-0.24-3.99-2.24-0.41-2.59-0.41-2.59-0.64-5.93-0.1-1.25-0.19-2.5-0.3-3.79-0.05-0.67-0.1-1.35-0.15-2.04-1.28-16.8-3.86-33.3-6.81-50-0.81-4.59-1.58-9.19-2.31-13.8-0.26-1.68-0.26-1.68-0.54-3.39-0.32-2.05-0.64-4.09-0.96-6.14-0.14-0.89-0.28-1.77-0.43-2.69-0.12-0.76-0.24-1.52-0.36-2.3-0.46-2.28-0.46-2.28-2.5-4.98-0.4-1.96-0.72-3.95-1-5.93-0.53-3.84-1.26-6.64-3-10.1-0.35-1.8-0.63-3.61-0.87-5.43-1.05-6.77-2.98-13.1-5.13-19.6-0.27-0.85-0.54-1.69-0.82-2.57-1.48-4.6-3.21-9.01-5.18-13.4l-1 1c0.2 2.01 0.49 4.01 0.81 6 0.26 1.64 0.26 1.64 0.52 3.32 0.22 0.88 0.44 1.77 0.67 2.68l2 1c0.42 2.29 0.42 2.29 0.63 5.07 0.11 1.38 0.11 1.38 0.22 2.78 0.08 1.07 0.08 1.07 0.15 2.15h-2v-4c-1 3.13-0.81 4.88 0 8l-1 3c-0.35 2-0.69 4-1 6l2 1-6 3-6-4-2 3c-2.15 0-3.92-0.44-6-1v-2l-1-3h-2v3h-2c-2.09-3.59-3.27-6.88-4.19-10.9-6.38-27-17.5-55.8-30.1-80.5-1.75-3.57-1.75-3.57-1.75-5.57-7.3-0.74-14.1 2.92-20 7-3.05 2.77-5.43 5.16-7 9h-2c-0.27 0.89-0.53 1.78-0.81 2.69-1.19 3.31-1.19 3.31-2.75 5.56-4.38 8.38-3.46 22.6-1.44 31.8 1.13 2.8 2.51 5.38 4 8 0.43 1 0.43 1 0.87 2.01 1.4 2.46 3.07 3.84 5.26 5.62 1.32 1.08 2.63 2.2 3.87 3.37v2c0.74 0.28 1.48 0.56 2.24 0.85 2.5 1.05 4.63 2.27 6.95 3.65 5.64 2.97 11.3 3.27 17.6 3.34 2.31 0.12 4.09 0.3 6.24 1.16 2.01 2.44 2.99 5.04 4 8 0.4 1.05 0.79 2.1 1.2 3.17 2.32 7.55 3.83 15 4.8 22.8-8.84 1.6-17.4 1.09-26.2 0.19-0.75-0.07-1.51-0.14-2.29-0.21-4.98-0.55-8.9-1.79-13.5-3.98-1.43-0.64-2.86-1.29-4.3-1.93-1.48-0.69-2.96-1.38-4.45-2.07-1.13-0.51-1.13-0.51-2.28-1.03-0.73-0.34-1.46-0.68-2.2-1.03-0.98-0.45-0.98-0.45-1.98-0.91-1.96-1.12-3.27-2.37-4.79-4.03-3.01-3.22-3.01-3.22-7-5-3.41-3.06-5.7-6.06-8-10-0.78-0.9-1.57-1.81-2.37-2.75-5.34-6.37-8.22-13.4-10.9-21.2-0.26-0.74-0.52-1.49-0.78-2.26-2.67-8.14-3.25-16.2-2.97-24.7 0.01-0.78 0.01-1.57 0.02-2.37 0.4-9.35 3.84-17.9 6.98-26.6h2c0.13-0.9 0.25-1.81 0.38-2.75 0.54-2.84 1.19-4.77 2.62-7.25h2c0.26-0.72 0.52-1.45 0.79-2.2 3.95-9.09 12.2-16.3 20.2-21.8 2.33-0.74 2.33-0.74 4-1v-2c2.68-1.29 5.37-2.55 8.06-3.81 1.1-0.53 1.1-0.53 2.22-1.08 13.3-6.12 27-6.55 41.4-6.48zm287 83.4v2c0.99-0.33 1.98-0.66 3-1-0.99-0.33-1.98-0.66-3-1zm-5 2c0.99 0.33 1.98 0.66 3 1l-3 3v-4z" fill="#EF6430"/>
<path transform="translate(673 751)" d="m0 0c0.91-0.01 1.82-0.01 2.76-0.02 1.52 0.01 1.52 0.01 3.06 0.02 1.6-0.01 1.6-0.01 3.23-0.01 3.6-0.01 7.19 0 10.8 0 2.57 0 5.13 0 7.7-0.01 6.27-0.01 12.5 0 18.8 0 5.09 0.01 10.2 0.01 15.3 0h2.2 4.41c13.8 0 27.6 0 41.4 0.01 11.8 0.01 23.7 0.01 35.5 0 13.7-0.01 27.5-0.01 41.2-0.01h4.39 2.19c5.08 0.01 10.2 0 15.3 0 6.84-0.01 13.7 0 20.5 0.01h7.56c3.42-0.01 6.84 0 10.3 0.01 1.01-0.01 2.01-0.01 3.05-0.02 1.37 0.01 1.37 0.01 2.77 0.02h2.39c1.92 0.25 1.92 0.25 3.92 2.25 0.3 2.43 0.47 4.75 0.57 7.19 0.03 0.72 0.07 1.44 0.11 2.19 0.07 1.55 0.15 3.1 0.21 4.65 0.19 4.02 0.4 8.03 0.61 12 0.04 0.79 0.09 1.58 0.13 2.38 0.42 7.86 1.16 15.6 2.12 23.5 0.28 2.27 0.52 4.54 0.75 6.82 0.17 1.54 0.34 3.09 0.5 4.64 0.07 0.69 0.15 1.39 0.22 2.11 0.45 3.98 1.25 6.69 2.78 10.5h-279c-1.56-3.13-1.4-6.58-1-10l2-3c0.44-2.28 0.44-2.28 0.6-4.81 0.08-0.93 0.16-1.86 0.24-2.82 0.08-0.97 0.15-1.93 0.23-2.93 0.15-1.92 0.31-3.84 0.47-5.75 0.1-1.28 0.1-1.28 0.2-2.58 0.26-2.11 0.26-2.11 1.26-4.11 0.23-2.3 0.4-4.61 0.54-6.91 0.04-0.69 0.08-1.38 0.13-2.09 0.09-1.46 0.18-2.92 0.26-4.38 0.13-2.21 0.27-4.43 0.41-6.64 0.52-8.16 0.52-8.16 0.56-16.3 0.15-5.21 1.61-5.89 6.42-5.89z" fill="#FCFEFE"/>
<path transform="translate(652 500)" d="m0 0c1.82-0.02 3.65-0.04 5.47-0.07 2.6-0.04 5.2-0.06 7.8-0.07 0.79-0.02 1.58-0.03 2.39-0.05 3.55 0.01 5.59 0.16 8.47 2.32 2 2.79 2.64 5.25 3.42 8.59 0.33 1.35 0.66 2.69 0.99 4.04 0.18 0.72 0.35 1.45 0.54 2.2 0.87 3.38 1.87 6.72 2.86 10.1 2.59 8.75 4.68 17.4 6.09 26.4 0.22 0.94 0.43 1.88 0.64 2.86l2 1c0.6 2.76 1.09 5.46 1.5 8.25 0.75 4.87 1.56 9.19 3.5 13.8 0.56 2.49 1 4.98 1.44 7.5 0.49 2.52 0.49 2.52 1.56 4.88 1.22 3.18 1.63 6.18 2.07 9.55 0.29 7.54 0.29 7.54 2.93 14.1 0.29 3.2 0.45 6.4 0.63 9.6 0.38 3.41 1.27 6.16 2.37 9.4 0.44 2.43 0.81 4.86 1.13 7.31 0.13 0.99 0.13 0.99 0.26 1.99 0.45 3.65 0.7 7.21 0.61 10.9 0 3.82 0.4 4.63 2 7.82 2.09 11.2 1.12 23.4 1.07 34.8-0.01 2.06-0.01 4.13-0.02 6.19-0.01 5.02-0.02 10-0.05 15.1-6.51 0.05-13 0.08-19.5 0.11-2.22 0.01-4.43 0.02-6.65 0.04-3.18 0.02-6.37 0.03-9.55 0.04-1.49 0.02-1.49 0.02-3.02 0.03h-2.79c-0.81 0.01-1.62 0.01-2.46 0.02-1.99-0.24-1.99-0.24-3.99-2.24-0.4-2.6-0.4-2.6-0.64-5.93-0.09-1.25-0.19-2.51-0.29-3.8-0.08-1.01-0.08-1.01-0.16-2.04-1.28-16.8-3.86-33.3-6.8-50-0.82-4.59-1.58-9.18-2.31-13.8-0.18-1.12-0.36-2.24-0.54-3.39-0.33-2.05-0.65-4.09-0.96-6.14-0.15-0.88-0.29-1.77-0.44-2.69-0.11-0.76-0.23-1.52-0.36-2.3-0.45-2.27-0.45-2.27-2.5-4.97-0.39-1.97-0.72-3.95-1-5.94-0.53-3.84-1.26-6.63-3-10.1-0.34-1.81-0.63-3.62-0.87-5.44-1.05-6.76-2.98-13.1-5.13-19.6-0.27-0.85-0.54-1.7-0.82-2.58-1.1-3.42-2.29-6.68-3.74-9.99-1.25-2.99-2.05-5.84-2.8-8.99-3.21-12.3-8.16-24-13-35.8-0.97-2.37-1.93-4.74-2.89-7.12-0.6-1.46-1.19-2.92-1.79-4.38-2.01-4.96-2.01-4.96-2.01-7.18h-2l1-3c13.1-0.9 26.2-1.19 39.3-1.29z" fill="#FCFEFE"/>
<path transform="translate(922,501)" d="m0 0h65c-2.15 5.37-4.29 10.7-6.54 16.1-2.98 7.13-5.73 14.3-8.26 21.6-1.69 4.91-3.48 9.78-5.32 14.6-3.56 9.42-6.97 18.5-8.39 28.5-0.49 2.18-0.49 2.18-2.49 4.18-0.41 1.97-0.73 3.95-1 5.94-0.52 3.85-0.81 5.78-3 9.06-0.54 2.28-1.01 4.57-1.44 6.88-0.25 1.35-0.51 2.7-0.77 4.05-0.13 0.68-0.26 1.36-0.39 2.06-0.6 3.04-1.27 6.05-1.96 9.07-0.23 1-0.46 2.01-0.69 3.04-0.75 2.9-0.75 2.9-1.72 5.6-1.44 4.6-2.18 9.25-2.97 14-0.17 1-0.34 2.01-0.52 3.05-1.27 7.48-2.47 15-3.59 22.5-0.84 5.55-0.84 5.55-1.95 7.76-0.21 2.67-0.37 5.33-0.5 8-0.36 7.73-0.36 7.73-1.5 10-0.15 1.45-0.25 2.9-0.32 4.35-0.06 1.28-0.06 1.28-0.12 2.58-0.04 0.89-0.08 1.78-0.12 2.69-0.07 1.35-0.07 1.35-0.13 2.72-0.11 2.22-0.21 4.44-0.31 6.66-5.19 2.1-9.73 2.31-15.2 2.3-0.87 0.01-1.74 0.01-2.64 0.01-1.84 0.01-3.67 0.01-5.51 0.01-2.81-0.01-5.62 0.02-8.43 0.04h-5.36c-0.84 0.01-1.68 0.02-2.55 0.03-5.84-0.05-5.84-0.05-8-1.75-1.87-2.4-1.64-4.25-1.61-7.26 0.01-1.1 0.01-2.2 0.02-3.34 0.03-1.72 0.03-1.72 0.06-3.48 0.01-1.14 0.01-2.29 0.02-3.47 0.08-8.89 0.08-8.89 1.23-13.1 0.06-2.49 0-4.97-0.06-7.46 0.06-2.54 0.06-2.54 0.53-4.78 0.61-3.17 0.81-6.26 0.99-9.49 0.12-1.91 0.12-1.91 0.24-3.87 0.12-2.02 0.24-4.04 0.35-6.06 0.11-1.96 0.23-3.92 0.35-5.88 0.1-1.75 0.1-1.75 0.21-3.54 0.39-2.92 0.39-2.92 2.39-5.92 0.42-2.4 0.42-2.4 0.56-5.06 0.08-0.97 0.15-1.94 0.23-2.94 0.07-0.99 0.14-1.98 0.21-3 0.16-1.85 0.32-3.71 0.5-5.56 0.07-0.81 0.14-1.61 0.22-2.44 0.28-2 0.28-2 1.28-4h2c-0.19-0.64-0.38-1.27-0.58-1.93-0.58-4.24 0.15-8 0.89-12.2 0.13-0.82 0.26-1.63 0.4-2.46 0.66-3.84 1.08-6.1 3.29-9.42 0.59-2.17 0.59-2.17 0.96-4.57 0.17-0.9 0.33-1.79 0.49-2.72s0.32-1.87 0.49-2.83c1.06-6.18 2.32-12 4.4-17.9 0.83-2.47 1.28-4.9 1.66-7.47 0.58-3.46 1.31-6.64 2.5-9.94 1.66-4.6 2.32-9.22 2.97-14.1 0.53-2.5 0.53-2.5 2.53-4.5 0.5-1.92 0.5-1.92 0.81-4.19 1.45-7.09 3.9-13.9 6.19-20.8z" fill="#FCFEFE"/>
<path transform="translate(755 500)" d="m0 0c1.81-0.01 3.61-0.02 5.42-0.03 2.57-0.02 5.14-0.02 7.71-0.02 0.78-0.01 1.55-0.02 2.35-0.02 4.41 0.01 6.8 0.55 11 2.25l1 215c-3.59 0.71-6.26 1.13-9.8 1.13h-2.72c-0.92 0-1.84 0-2.8-0.01-1.36 0.01-1.36 0.01-2.76 0.01-5.39 0-10.6-0.17-15.9-1.13-1.61-3.22-1.22-6.76-1.28-10.3-0.02-0.83-0.04-1.65-0.06-2.5-0.06-2.65-0.11-5.3-0.16-7.95-0.07-3.48-0.14-6.95-0.22-10.4-0.01-0.8-0.03-1.59-0.04-2.41-0.1-4.24-0.45-8.24-1.24-12.4-0.28-2.84-0.5-5.67-0.72-8.51-0.21-2.62-0.21-2.62-1.28-5.49-0.24-1.98-0.44-3.96-0.62-5.94-0.11-1.19-0.22-2.39-0.33-3.62-0.12-1.28-0.24-2.56-0.37-3.88-0.95-9.74-2.18-19.3-4.27-28.8-1.36-6.23-2.23-12.4-2.92-18.8-0.32-2.87-0.32-2.87-1.45-4.86-1.63-3.3-1.98-6.88-2.54-10.5-0.81-5.08-1.85-9.73-3.5-14.6-0.36-2.12-0.67-4.25-0.94-6.38-0.65-4.5-1.53-8.37-3.28-12.6-1.72-4.54-2.66-9.35-3.78-14.1-1.57-6.37-3.17-12.7-5-19-0.8-2.92-1.26-5.75-1.57-8.75-0.12-1.2-0.12-1.2-0.25-2.42-0.09-0.91-0.09-0.91-0.18-1.83 14.2-0.81 28.3-1.13 42.5-1.18z" fill="#FCFEFE"/>
<path transform="translate(817,501)" d="m0 0c8.85-0.02 17.7-0.04 26.6-0.05 4.1-0.01 8.21-0.01 12.3-0.03 3.96-0.01 7.93-0.01 11.9-0.01 1.51-0.01 3.03-0.01 4.54-0.02h6.34c1.21-0.01 2.42-0.01 3.66-0.01 2.7 0.12 2.7 0.12 3.7 1.12-0.48 5.8-1.73 11.1-3.38 16.7-1.85 6.47-3.49 12.9-4.94 19.5-0.59 2.43-1.31 4.69-2.18 7.04-1.85 5.17-2.59 10.6-3.41 16-0.88 5.55-0.88 5.55-3.09 7.76-0.27 2.09-0.53 4.18-0.72 6.28-0.32 3.07-0.74 6.11-1.22 9.16-0.23 1.51-0.23 1.51-0.46 3.06-0.6 2.5-0.6 2.5-2.6 4.5-0.52 2.48-0.52 2.48-0.78 5.38-0.12 1.06-0.24 2.13-0.36 3.23-0.12 1.12-0.24 2.24-0.36 3.39-0.23 2.21-0.47 4.42-0.72 6.62-0.1 0.99-0.2 1.97-0.31 2.98-0.47 2.4-0.47 2.4-2.47 4.4-0.45 1.96-0.45 1.96-0.6 4.22-0.12 1.27-0.12 1.27-0.24 2.58-0.11 1.33-0.11 1.33-0.22 2.7l-0.48 5.22c-0.24 2.7-0.47 5.39-0.67 8.1-0.07 0.89-0.15 1.79-0.22 2.71-0.1 1.22-0.1 1.22-0.19 2.46-0.38 2.01-0.38 2.01-2.38 4.01-0.39 2.86-0.66 5.63-0.85 8.5-0.1 1.3-0.1 1.3-0.2 2.62-0.2 2.81-0.39 5.63-0.57 8.44-0.07 0.95-0.14 1.9-0.21 2.88-1.03 14.9-1.56 29.6-1.17 44.6-27.5 1.7-27.5 1.7-33 0-2.74-3.71-2.28-8.03-2.25-12.4v-2.6c-0.01-2.89 0-5.77 0.01-8.66 0-2.07-0.01-4.13-0.01-6.2 0-5.61 0-11.2 0.01-16.8 0.01-5.87 0.01-11.7 0.01-17.6 0-9.86 0.01-19.7 0.02-29.6 0.02-11.4 0.03-22.8 0.02-34.2 0-11 0.01-21.9 0.02-32.9v-14c0-5.49 0.01-11 0.02-16.5v-6.07c0-2.75 0.01-5.49 0.02-8.24-0.01-0.81-0.01-1.62-0.01-2.45 0.03-5.51 0.03-5.51 1.14-7.74z" fill="#FCFEFE"/>
<path transform="translate(1597,5)" d="m0 0c1.74 3.02 2.25 5.19 2.25 8.66 0.01 0.95 0.01 1.89 0.02 2.86-0.01 1.03-0.01 2.07-0.02 3.13 0 1.11 0.01 2.21 0.01 3.35 0.01 3.74 0 7.48-0.01 11.2 0 2.71 0.01 5.42 0.01 8.12 0.01 5.92 0.01 11.8 0 17.8-0.01 8.87 0 17.7 0 26.6 0.01 15.1 0.01 30.2 0.01 45.3-0.01 15.3-0.01 30.6-0.01 46v2.92c0 3.94 0.01 7.87 0.01 11.8 0.01 36.7 0.01 73.4 0 110v3.3 3.3 99.4 6.65 26.7 74.7 3.44 108 3.55c0 19.1-0.01 38.1-0.01 57.2-0.01 75.6-0.01 151 0 227 0 19 0.01 38.1 0.01 57.2v3.55 108 3.43 74.6 26.7 6.64 99.4 3.3 3.29c0.01 36.6 0.01 73.1 0 110-0.01 3.93-0.01 7.85-0.01 11.8v2.91c0 15.3 0 30.6 0.01 45.8 0 15 0 30-0.01 45-0.01 8.8 0 17.6 0 26.4 0.01 5.84 0.01 11.7 0 17.5-0.01 3.32-0.01 6.64 0 9.95 0.01 3.56 0 7.11-0.01 10.7 0.01 1.04 0.01 2.08 0.02 3.15-0.01 0.93-0.01 1.87-0.02 2.84v2.45c-0.25 1.96-0.25 1.96-2.25 3.96-2.13-0.38-2.13-0.38-4-1l1-4-5-1c0.99-0.33 1.98-0.66 3-1-0.05-0.85-0.05-0.85-0.11-1.72-0.16-2.62-0.3-5.23-0.45-7.84-0.06-0.9-0.11-1.79-0.17-2.72-0.28-5.08-0.2-9.71 0.73-14.7h1v17c1.19-0.97 1.19-0.97 1.12-2.76v-2.34c0.01-0.89 0.01-1.78 0.01-2.7 0-1 0-1.99-0.01-3.01 0.01-1.58 0.01-1.58 0.01-3.19 0-3.57 0-7.15-0.01-10.7 0-2.58 0-5.16 0.01-7.74 0-5.65 0-11.3-0.01-17v-25.4c0.01-14.4 0-28.8 0-43.2-0.01-14.6-0.01-29.2-0.01-43.9v-2.79-14.1c0.01-34 0-68.1 0-102-0.01-33.7-0.01-67.5-0.02-101v-3.17-28.7-71.3-3.28c0-52.7-0.01-105-0.01-158-0.01-18.3-0.01-36.6-0.01-54.9v-3.44c-0.01-52.7-0.01-105-0.01-158-0.01-3.44-0.01-6.89-0.01-10.3v-108-3.11-5.6c-0.01-174-0.03-348-0.05-522l-1 1464h-2c-0.01-44.6-0.01-89.1-0.02-134v-2.64c-0.01-93.6-0.02-187-0.02-281v-6.24c-0.01-43.7-0.01-87.3-0.01-131v-65.8c0-3.31-0.01-6.62-0.01-9.93 0-50.9 0-102-0.01-153v-3.31c0-17.6 0-35.2-0.01-52.9 0-50.8-0.01-102-0.01-152v-3.17-69-27.8-3.07c-0.01-32.5-0.01-65-0.02-97.6 0-32.8-0.01-65.6 0-98.4v-13.7-2.7c0-14-0.01-28-0.01-42.1v-41.6-22.2c-0.03-35.9 0.31-71.7 1.12-108h1l1 38c-0.12-12.3-0.12-12.3-0.27-24.6-0.01-1.55-0.02-3.09-0.02-4.64-0.02-0.79-0.03-1.59-0.05-2.41 0-4.66 0.41-7.54 3.34-11.4z" fill="#FDFEFE"/>
<path transform="translate(717,527)" d="m0 0h2c4.85 11.6 7.23 24.3 9.49 36.7 0.17 0.88 0.34 1.77 0.51 2.69 0.14 0.79 0.29 1.58 0.44 2.39 0.46 2.23 0.46 2.23 1.56 4.08 1.86 4 1.92 8.5 2.44 12.8 0.36 3.16 0.36 3.16 1.53 5.14 1.29 2.73 1.62 5.2 2.03 8.19 0.16 1.16 0.33 2.33 0.5 3.54 0.16 1.22 0.33 2.43 0.5 3.69 1.11 8.93 1.11 8.93 3.03 17.7 1.97 7.25 2.14 15 2.83 22.4 0.69 7.66 0.69 7.66 2.23 15.2 0.84 3.15 1.1 5.58 0.97 8.81-0.19 3.45-0.19 3.45 0.94 6.62 0.09 2.84 0.12 5.66 0.1 8.51 0 0.84-0.01 1.68-0.01 2.55 0 2.69-0.01 5.38-0.03 8.06 0 1.83-0.01 3.65-0.01 5.47-0.01 4.47-0.03 8.94-0.05 13.4-3 0-3 0-5.25-1.75-0.87-1.11-0.87-1.11-1.75-2.25 0.31-2.19 0.31-2.19 1-4l-1-1c-0.69-1.99-1.36-3.99-2-6l-4 1 2-4-5-1 1 3h-3c-1.56-1.81-1.56-1.81-3-4l-2-3c-0.99 0.33-1.98 0.66-3 1v11l-2 1c-0.63 2.16-1.15 4.36-1.62 6.56-0.27 1.2-0.53 2.4-0.79 3.63-0.2 0.93-0.39 1.86-0.59 2.81-2.48-1.85-2.97-2.8-3.43-5.92-0.03-1.17-0.05-2.34-0.08-3.55-0.04-1.29-0.07-2.59-0.11-3.92-0.02-1.37-0.04-2.74-0.07-4.11-0.03-1.34-0.07-2.68-0.1-4.02-0.14-5.85-0.22-11.7-0.21-17.6 0.01-3.8-0.08-7.57-0.38-11.4-0.06-0.97-0.13-1.93-0.21-2.93-0.26-2.6-0.26-2.6-1.43-4.54-1.09-2.33-1.15-3.68-1.02-6.24 0.12-4.96-0.55-9.6-1.4-14.5l-0.81-4.86c-0.13-0.76-0.25-1.53-0.39-2.32-0.73-4.47-1.35-8.94-1.8-13.4-0.3-3.82-0.3-3.82-2.56-6.75-0.34-2.31-0.34-2.31-0.5-5-0.58-10.5-0.58-10.5-4.5-20-0.67-2.72-0.82-5.18-1-8l2-2c1.8 1.64 2.91 2.79 3.82 5.07 1 2.14 1 2.14 3.27 2.47 1.19 0.04 1.19 0.04 2.41 0.08 4.31 0.19 4.31 0.19 6.5 2.38 1.49 0.5 1.49 0.5 3 1 2.28-1.8 2.95-2.64 3.38-5.56-0.13-0.81-0.25-1.61-0.38-2.44l-3-2c-0.27-3.72-0.18-6.46 1-10h3l1-2c0.67 3.33 1.33 6.67 2 10 0-3.25-0.44-6.23-0.94-9.44-0.17-1.13-0.35-2.26-0.52-3.43-0.47-2.98-0.47-2.98-1.1-5.24-0.53-2.26-0.54-4.32-0.5-6.64 0.01-0.8 0.02-1.6 0.02-2.42 0.02-0.61 0.03-1.21 0.04-1.83h-2c-0.51-2.39-1-4.79-1.5-7.19-0.14-0.67-0.29-1.34-0.43-2.04-0.75-3.65-1.24-7.05-1.07-10.8z" fill="#E64A2A"/>
<path transform="translate(650,863)" d="m0 0h298c3 7 3 7 3 11h-302c-1-5-1-5 1-11z" fill="#FCFEFE"/>
<path transform="translate(621 751)" d="m0 0c0.79 0.01 1.57 0.02 2.38 0.02 0.78 0 1.57-0.01 2.38-0.02 5.87 0.02 5.87 0.02 8.12 2.27 0.17 2.61 0.17 2.61 0.05 5.9-0.05 1.2-0.09 2.41-0.13 3.65-0.06 1.26-0.11 2.53-0.17 3.83-0.04 1.22-0.08 2.45-0.12 3.71-0.27 6.9-0.94 13.5-2.18 20.3-0.55 3.18-0.79 6.32-0.95 9.53-0.65 10.2-2.38 20.1-4.78 30-0.65 2.71-1.22 5.42-1.78 8.15-0.94 3.87-0.94 3.87-2.94 6.87-0.52 1.53-0.98 3.08-1.4 4.64-0.25 0.91-0.5 1.82-0.76 2.75-0.39 1.42-0.39 1.42-0.78 2.86-4.35 16-4.35 16-7.06 18.8-1.34 0.09-2.69 0.11-4.04 0.1-0.81 0-1.61-0.01-2.45-0.01-0.85-0.01-1.7-0.02-2.57-0.02-0.86-0.01-1.71-0.01-2.59-0.02-2.12-0.01-4.23-0.03-6.35-0.05l-1-3c0.49-0.99 0.49-0.99 1-2h2c0.1-1.19 0.21-2.39 0.31-3.62 0.35-3.99 1.9-6.82 3.69-10.4 0.74-2.25 1.43-4.52 2.06-6.81 0.34-1.22 0.68-2.44 1.03-3.7 0.91-3.49 1.73-6.98 2.42-10.5 0.49-1.97 0.49-1.97 1.45-4.16 1.2-3.24 1.64-6.23 2.07-9.65 0.09-0.66 0.17-1.31 0.26-1.98l0.51-4.14c0.26-2.07 0.52-4.14 0.79-6.21 0.9-7.14 1.67-14.3 2.16-21.5 0.25-2.36 0.25-2.36 1.25-5.36 0.06-2.11 0.06-4.23 0.03-6.34-0.02-1.25-0.03-2.49-0.04-3.78l-0.12-7.89c-0.01-1.25-0.02-2.49-0.03-3.77-0.02-1.15-0.03-2.29-0.05-3.47 0.42-5.47 3.58-5 8.33-5.02z" fill="#FCFEFE"/>
<path transform="translate(965,751)" d="m0 0c2.96-0.05 5.92-0.09 8.88-0.12 0.84-0.02 1.68-0.04 2.55-0.06 0.8 0 1.61-0.01 2.44-0.02 1.11-0.01 1.11-0.01 2.25-0.03 1.88 0.23 1.88 0.23 3.88 2.23 0.3 2.03 0.3 2.03 0.38 4.55 0.05 1.42 0.05 1.42 0.1 2.87 0.03 1.02 0.05 2.04 0.08 3.1 0.06 1.58 0.06 1.58 0.11 3.18 0.12 3.37 0.23 6.74 0.33 10.1 0.14 4.43 0.28 8.85 0.44 13.3 0.02 1.02 0.05 2.04 0.08 3.09 0.05 1.43 0.05 1.43 0.1 2.89 0.03 0.83 0.05 1.67 0.08 2.53 0.34 2.73 1.22 4.89 2.3 7.41 0.35 1.78 0.65 3.57 0.89 5.36 0.15 1.02 0.3 2.05 0.45 3.11 0.16 1.08 0.31 2.16 0.47 3.28 1.57 10.4 3.92 20.2 7.19 30.2 0.34 1.2 0.68 2.4 1.02 3.64 0.85 2.92 1.82 5.67 2.98 8.48 0.33 0.81 0.66 1.62 1 2.45 0.69 1.67 1.4 3.33 2.12 4.98 0.88 2.45 0.88 2.45 0.88 6.45-2.77 0.05-5.54 0.09-8.31 0.12-0.79 0.02-1.57 0.04-2.38 0.06-0.76 0-1.52 0.01-2.3 0.02-0.69 0.01-1.39 0.02-2.11 0.03-1.9-0.23-1.9-0.23-4.9-2.23-0.98-2.39-1.81-4.67-2.56-7.12-0.33-1.03-0.33-1.03-0.66-2.07-1.45-4.57-2.66-9.15-3.78-13.8-0.47-1.4-0.95-2.8-1.44-4.19-1.63-4.76-2.73-9.59-3.81-14.5-0.54-2.4-1.14-4.78-1.77-7.16-1.09-4.31-1.6-8.61-2.04-13-0.36-5.22-0.36-5.22-1.94-10.1-0.21-2.41-0.37-4.83-0.5-7.25-0.26-4.66-0.66-9.16-1.5-13.8-0.84-5.53-1.03-10.8-0.96-16.4-0.04-2.3-0.23-4.42-0.6-6.68-0.44-2.94-0.44-2.94 0.56-4.94z" fill="#FCFDFD"/>
<path transform="translate(1074 1091)" d="m0 0c0.65-0 1.3-0 1.97-0.01 1.37 0 2.75 0.01 4.12 0.01 2.09 0.02 4.18 0.01 6.27-0.01 1.34 0 2.68 0.01 4.02 0.01 1.21 0 2.42 0 3.67 0.01 3.44 0.26 6.19 1.02 9.4 2.26v2h3c3.66 7.15 5.92 12.2 4.63 20.4-0.63 1.63-0.63 1.63-2.63 2.63-0.49 1.48-0.49 1.48-1 3-6.11 3-6.11 3-9 3 3.61 6.83 7.45 13.4 11.8 19.8 0.4 0.73 0.81 1.46 1.22 2.22-0.49 0.99-0.49 0.99-1 2-5.75-0.88-5.75-0.88-8-2-1.03-1.65-2.03-3.32-3-5-1.85-2.83-3.71-5.66-5.57-8.48-1.43-2.52-1.43-2.52-1.43-5.52l-21-1v22c-5-1-5-1-6-2-0.1-1.65-0.14-3.3-0.14-4.95-0.01-1.06-0.01-2.11-0.02-3.2v-3.48c-0.01-1.17-0.01-2.34-0.01-3.54-0.01-2.48-0.01-4.96-0.01-7.44 0-3.81-0.02-7.62-0.04-11.4 0-2.4-0.01-4.81-0.01-7.21 0-1.15-0.01-2.29-0.02-3.47 0-1.06 0.01-2.12 0.01-3.21v-2.83c0.58-5.26 4.45-4.5 8.79-4.51z" fill="#E6492A"/>
<path transform="translate(623 1091)" d="m0 0c2.08-0.01 4.16-0.04 6.23-0.07 1.34-0.01 2.68-0.01 4.01-0.02 1.21-0.01 2.42-0.02 3.66-0.03 5.26 0.54 9.17 1.95 12.9 5.86 3.59 5.53 3.59 12.1 3.63 18.5-0.97 3.51-1.56 5.14-4.7 7.02-2.42 1.11-4.61 1.98-7.3 1.98 0.49 2.97 0.49 2.97 1 6h2c1.5 2.62 3 5.25 4.5 7.88 0.43 0.74 0.85 1.49 1.3 2.26 0.4 0.71 0.81 1.43 1.23 2.16 0.37 0.66 0.75 1.32 1.14 2 0.83 1.7 0.83 1.7 0.83 3.7-5.75-0.87-5.75-0.87-8-2-1.84-2.75-3.23-5.5-4.6-8.52-1.94-3.97-3.84-7.73-7.4-10.5-6.25-2.03-12.5-1.27-19-1v21c-2.48 0.5-2.48 0.5-5 1-1.28-2.55-1.12-4.33-1.12-7.18v-3.28c0.01-1.17 0.01-2.34 0.02-3.55v-3.62l0.03-11.5c0.01-2.6 0.01-5.19 0.02-7.78 0.01-6.37 0.03-12.7 0.05-19.1 4.27-2.14 9.88-1.23 14.6-1.24z" fill="#E6492A"/>
<path transform="translate(711 1090)" d="m0 0c5.34 1.11 7.43 5.3 10.3 9.69 0.48 0.81 0.95 1.63 1.44 2.47 1.74 2.82 3.73 5.25 5.87 7.78 3.94 4.74 7.32 9.59 10.7 14.8l8 11 1-44 5-1c2 2 2 2 2.25 4.28v2.89 3.26c0 1.17-0.01 2.34-0.02 3.54v3.62c0 2.52-0.01 5.05-0.02 7.57-0.02 3.89-0.02 7.77-0.02 11.6-0.01 2.45-0.01 4.9-0.02 7.35v3.54c-0.01 1.08-0.02 2.15-0.02 3.26-0.01 1.43-0.01 1.43-0.01 2.88-0.14 2.16-0.14 2.16-1.14 3.16-4.17-0.16-6.41-0.53-9.69-3.19-2.33-2.84-4.32-5.71-6.31-8.81-3.14-4.68-6.37-9.26-9.9-13.6-0.75-0.94-0.75-0.94-1.52-1.9-1-1.25-2.01-2.49-3.02-3.72-3.56-4.41-3.56-4.41-3.56-7.73h-2c-1.36-1.98-2.69-3.98-4-6h-1l-1 45c-1.98-0.33-3.96-0.66-6-1-0.05-7.66-0.08-15.3-0.11-23-0.01-2.61-0.02-5.21-0.04-7.82-0.02-3.74-0.03-7.48-0.04-11.2-0.01-1.18-0.02-2.35-0.03-3.55v-3.28c-0.01-0.95-0.01-1.91-0.02-2.89 0.37-3.49 1.63-4.14 4.93-4.98z" fill="#E6492A"/>
<path transform="translate(1175 1091)" d="m0 0h2.54 5.32c2.72 0.01 5.45 0 8.17-0h5.16c1.23-0 1.23-0 2.48-0.01 5.74 0.03 5.74 0.03 6.86 1.14v5c-17.3 0.5-17.3 0.5-35 1-0.84 9.33-0.84 9.33 2 17 2.05 0.14 4.1 0.21 6.15 0.25 1.88 0.05 1.88 0.05 3.79 0.1 2.66 0.06 5.32 0.12 7.98 0.17 1.25 0.03 2.5 0.07 3.79 0.1 1.74 0.04 1.74 0.04 3.51 0.08 2.78 0.3 2.78 0.3 4.78 2.3v4c-0.91 0.03-1.81 0.05-2.74 0.08-3.34 0.09-6.68 0.19-10 0.3-1.44 0.04-2.89 0.08-4.34 0.12-2.08 0.06-4.16 0.12-6.23 0.19-1.25 0.03-2.51 0.07-3.8 0.11-2.76-0.12-2.76-0.12-3.86 1.2l1 16c16.3 0.5 16.3 0.5 33 1 0.49 2.48 0.49 2.48 1 5-2.11 2.11-6.65 1.31-9.56 1.39-0.86 0.03-1.72 0.05-2.61 0.08-1.82 0.05-3.64 0.1-5.46 0.15-2.8 0.07-5.59 0.16-8.38 0.25-1.77 0.05-3.53 0.1-5.3 0.14-0.84 0.03-1.68 0.06-2.55 0.09-2.04 0.05-4.09-0.02-6.14-0.1-2-2-2-2-2.24-4.29 0-0.95 0.01-1.91 0.01-2.89v-3.28c0.01-1.17 0.02-2.34 0.03-3.55 0-1.19 0.01-2.39 0.01-3.62 0.01-3.83 0.04-7.66 0.06-11.5 0.01-2.59 0.02-5.19 0.03-7.78 0.02-6.37 0.06-12.7 0.1-19.1 3.27-1.63 6.88-1.14 10.5-1.13z" fill="#E6492A"/>
<path transform="translate(766 1193)" d="m0 0c0.93-0.02 1.87-0.05 2.83-0.07 6.21-0.03 9.95 0.73 15 4.45 3.33 5.4 3.16 9.02 2 15-0.99 0.32-1.98 0.66-3 1-1.21 2-1.21 2-2 4h-3c0.41 0.73 0.82 1.47 1.24 2.23 0.54 0.97 1.08 1.95 1.64 2.95 0.8 1.45 0.8 1.45 1.61 2.92 1.35 2.59 2.48 5.16 3.51 7.9-3.6-0.52-5.52-1.38-7.73-4.29-4.27-7.05-4.27-7.05-4.27-9.71-4.95-0.33-9.9-0.67-15-1v14h-4c-2.02-2.02-1.16-6.14-1.17-8.91 0-0.79 0-1.58-0.01-2.4v-5.04c0-2.58-0.02-5.15-0.04-7.73-0.01-1.63-0.01-3.26-0.01-4.89-0.01-0.77-0.01-1.55-0.02-2.35 0.04-9.21 4.72-8.05 12.4-8.06z" fill="#E6492A"/>
<path transform="translate(506,1091)" d="m0 0c3.69 0.69 3.69 0.69 5 2 0.15 2.77 0.24 5.53 0.28 8.3 0.02 0.84 0.04 1.67 0.06 2.53 0.06 2.68 0.11 5.36 0.16 8.05 0.07 3.51 0.14 7.03 0.22 10.6 0.01 0.81 0.03 1.62 0.04 2.46 0 5.71 0 5.71 2.48 10.7 4.45 4.23 8.03 5.18 14.1 5.52 5.38-0.16 5.38-0.16 9.65-3.09 0.67-0.29 1.33-0.57 2.02-0.87 2.54-1.45 2.87-2.42 3.73-5.19 1.99-7.51 1.5-15.2 1.31-22.9-0.05-2.27-0.09-4.53-0.12-6.8-0.03-2.03-0.07-4.07-0.12-6.1 0.18-3.1 0.18-3.1 2.18-5.1 3.54 0.54 3.54 0.54 5 2 0.09 2.88 0.12 5.74 0.1 8.63 0 0.86-0.01 1.73-0.01 2.62 0 2.77-0.01 5.54-0.03 8.31 0 1.88-0.01 3.75-0.01 5.63-0.01 4.6-0.03 9.21-0.05 13.8h-2c-0.21 1.24-0.41 2.47-0.62 3.75-0.89 3.63-1.26 4.16-4.38 6.63-0.99 0.53-1.98 1.07-3 1.62l-2 2c-8.32 3.04-17.3 2.25-25.5-0.97-5.1-2.8-7.84-6.49-9.54-12-1.08-5.73-1.15-11.3-1.12-17.1v-2.8c0.14-20.1 0.14-20.1 2.12-22.1z" fill="#E6492A"/>
<path transform="translate(965,1091)" d="m0 0c2.12 0.38 2.12 0.38 4 1 0.03 0.89 0.05 1.78 0.08 2.7 0.09 3.35 0.19 6.7 0.29 10 0.05 1.44 0.09 2.88 0.13 4.33-0.56 13.8-0.56 13.8 3.88 25.9 2.63 2.12 2.63 2.12 5.62 4.06v2h18l2-4c1.04-1.08 1.04-1.08 2.09-2.19 2.67-3.93 2.48-7.11 2.45-11.8 0.01-0.85 0.02-1.71 0.03-2.59 0.04-2.71 0.05-5.43 0.05-8.15 0.02-2.73 0.04-5.45 0.08-8.18 0.02-1.7 0.03-3.39 0.02-5.09 0.06-5.82 0.06-5.82 2.28-8.04 3.54 0.54 3.54 0.54 5 2 0.26 4.56 0.19 9.12 0.19 13.7 0.01 1.26 0.02 2.52 0.03 3.82 0.02 8.54-0.23 17.1-2.22 25.5-0.99 0.49-0.99 0.49-2 1-0.45 0.8-0.91 1.61-1.38 2.44-1.73 2.74-2.73 3.31-5.62 4.56-0.5 0.99-0.5 0.99-1 2-7.33 2.58-16 3.07-23.3 0.06-4.93-2.85-10.6-7.28-12.3-12.9-0.73-3.56-0.6-7.16-0.61-10.8 0-0.84 0-1.67-0.01-2.53 0-1.75-0.01-3.51-0.01-5.27 0-2.69-0.02-5.39-0.03-8.08-0.01-1.71-0.01-3.42-0.01-5.12-0.01-1.22-0.01-1.22-0.02-2.45 0.02-5.69 0.02-5.69 2.25-7.92z" fill="#E6492A"/>
<path transform="translate(1e3 908)" d="m0 0c17.5-2.53 17.5-2.53 23 1.39 3.37 3.73 5.66 8.07 7.93 12.5 1.64 3.06 3.64 5.69 5.74 8.46 3.28 4.42 3.28 4.42 4.38 6.62-3 1-3 1-5.19 0.44-4-0.63-6.93 0.44-10.8 1.56 2.47 4.46 2.47 4.46 5 9h2c0.62 1.88 0.62 1.88 1 4l-2 2c-4.8-3.45-4.8-3.45-5.81-6.25-0.06-0.58-0.13-1.15-0.19-1.75h-2l-2-5h-2c-0.27-0.97-0.54-1.94-0.81-2.94-0.39-1.01-0.79-2.02-1.19-3.06-0.99-0.33-1.98-0.66-3-1-1.04-1.98-2.03-3.98-3-6-0.62-0.76-1.24-1.53-1.88-2.31-2.4-3.04-4.15-6.2-5.97-9.6-1.22-2.29-1.22-2.29-3.15-5.09v-3z" fill="#FDFDFC"/>
<path transform="translate(424 1091)" d="m0 0h2.55c2.69 0.01 5.38 0.02 8.07 0.04 1.82 0 3.64 0 5.46 0.01 4.47 0.01 8.94 0.03 13.4 0.05 0.38 1.65 0.72 3.32 1 5-1.98 1.98-5.82 1.25-8.53 1.31-0.76 0.02-1.51 0.05-2.29 0.07-2.41 0.06-4.83 0.12-7.24 0.18-1.63 0.04-3.27 0.09-4.9 0.13-4.01 0.11-8.03 0.21-12 0.31 0.11 2.08 0.22 4.17 0.33 6.26 0.08 1.61 0.16 3.22 0.24 4.84-0.14 3.76-0.14 3.76 1.43 6.9 1.98 0.13 3.96 0.2 5.94 0.24 1.2 0.04 2.41 0.07 3.65 0.1 2.56 0.06 5.12 0.12 7.69 0.18 1.81 0.05 1.81 0.05 3.66 0.1 1.11 0.02 2.22 0.05 3.37 0.07 2.69 0.31 2.69 0.31 4.69 2.31-0.37 2.12-0.37 2.12-1 4-0.84 0.02-1.68 0.05-2.55 0.07l-9.36 0.3c-1.35 0.04-2.7 0.09-4.05 0.12-1.94 0.06-3.88 0.13-5.82 0.19-1.16 0.04-2.33 0.07-3.53 0.11-2.61-0.09-2.61-0.09-3.69 1.21-0.15 1.63-0.25 3.27-0.31 4.91-0.05 0.99-0.09 1.98-0.13 3-0.04 1.04-0.08 2.08-0.12 3.15-0.07 1.57-0.07 1.57-0.13 3.17-0.11 2.59-0.21 5.18-0.31 7.77-1.87 0.62-1.87 0.62-4 1-2-2-2-2-2.24-4.29 0.01-0.96 0.01-1.91 0.02-2.9v-3.27c0.01-1.17 0.02-2.34 0.03-3.55 0-1.2 0-2.39 0.01-3.62 0.01-3.83 0.03-7.67 0.06-11.5 0.01-2.59 0.02-5.18 0.02-7.77 0.03-6.37 0.06-12.7 0.1-19.1 3.28-1.64 6.91-1.12 10.5-1.1z" fill="#E6492A"/>
<path transform="translate(643 1099)" d="m0 0c3.23 3.31 3.69 6.69 3.97 11.2-0.26 2.77-0.52 4.13-2.22 6.36-6.06 3.64-11.9 3.39-18.8 3.25-1.05 0-2.1-0.01-3.18-0.01-7.7-0.08-7.7-0.08-10-1.24-0.06-3.29-0.09-6.58-0.13-9.87-0.01-0.94-0.03-1.88-0.05-2.84-0.01-1.35-0.01-1.35-0.02-2.72-0.01-0.82-0.02-1.65-0.03-2.5 0.23-2.07 0.23-2.07 2.23-4.07 8.5-1.78 20.9-2.88 28.2 2.44z" fill="#FCFEFD"/>
<path transform="translate(1085 1097)" d="m0 0c1.64-0.06 1.64-0.06 3.31-0.11 8.12-0.09 8.12-0.09 12 2.88 0.93 1.29 0.93 1.29 1.87 2.61 0.66 0.66 1.32 1.31 2 2 0.68 4.54 0.93 8.67-1.75 12.5-4.02 2.67-6.72 3.75-11.6 3.76-1.53 0-1.53 0-3.08 0.01-1.58-0.01-1.58-0.01-3.2-0.03-1.59 0.02-1.59 0.02-3.22 0.03-1.01 0-2.02-0.01-3.07-0.01-0.92 0-1.85 0-2.81-0.01-2.27-0.25-2.27-0.25-4.27-2.25-0.23-2.07-0.23-2.07-0.2-4.58 0.01-0.89 0.02-1.79 0.02-2.71 0.02-0.94 0.04-1.87 0.05-2.84 0.01-0.94 0.02-1.89 0.03-2.86 0.02-2.34 0.06-4.68 0.1-7.01 4.1-2.05 9.31-1.32 13.8-1.38z" fill="#FBFEFD"/>
<path transform="translate(855,863)" d="m0 0h93c3 7 3 7 3 11h-13l2-1v-3c-5.15 0.54-5.15 0.54-10.2 1.62-1.81 0.38-1.81 0.38-4.04-0.1-3.02-0.57-5.76-0.58-8.83-0.52-5.54 0.11-5.54 0.11-7.72-0.5-2.9-0.65-5.59-0.59-8.56-0.56-1.91 0.01-1.91 0.01-3.87 0.02-1.02 0.01-1.02 0.01-2.06 0.02-16.6 0.15-33.1-0.3-49.7-0.98l1-2h2v-2h7v-2z" fill="#FDFDFD"/>
<path transform="translate(734,668)" d="m0 0c2 3.75 2 3.75 2 6 1.98 0.66 3.96 1.32 6 2l2-3 1 3 2-1c1.64 3.28 1.12 6.91 1.1 10.5 0 0.84-0.01 1.68-0.01 2.55 0 2.69-0.01 5.38-0.03 8.06 0 1.83-0.01 3.65-0.01 5.47-0.01 4.47-0.03 8.94-0.05 13.4-3 0-3 0-5.25-1.75-0.58-0.74-1.15-1.49-1.75-2.25 0.31-2.19 0.31-2.19 1-4l-1-1c-0.69-1.99-1.36-3.99-2-6-1.98 0.5-1.98 0.5-4 1l2-4-5-1 1 3h-3c-3.16-3.16-3.81-6.8-5-11l-2-1c0.47-0.58 0.95-1.15 1.44-1.75 1.51-2.18 2.1-3.68 2.56-6.25h2c0.08-1.07 0.16-2.14 0.25-3.25 0.8-4.02 1.63-5.23 4.75-7.75z" fill="#EF6330"/>
<path transform="translate(871 1091)" d="m0 0c1.14 0 1.14 0 2.31 0.01h2.61c0.93 0 1.87 0.01 2.83 0.01 0.95 0 1.91 0.01 2.89 0.01 3.06 0 6.11 0.02 9.17 0.03 2.07 0 4.13 0.01 6.2 0.01 5.08 0.01 10.2 0.03 15.2 0.05 0.49 2.97 0.49 2.97 1 6-9.9 0.5-9.9 0.5-20 1v49c-2.48 0.5-2.48 0.5-5 1-1.19-2.37-1.16-3.89-1.21-6.54-0.02-0.94-0.04-1.88-0.06-2.85-0.02-1.02-0.03-2.04-0.05-3.09-0.02-1.04-0.04-2.08-0.06-3.15-0.07-3.33-0.13-6.66-0.19-9.99-0.04-2.26-0.08-4.52-0.13-6.77-0.1-5.54-0.21-11.1-0.3-16.6-1.12-0.05-2.24-0.1-3.4-0.15-1.47-0.07-2.94-0.15-4.42-0.22-0.73-0.04-1.47-0.07-2.23-0.1-3.77-0.2-5.75-0.39-8.95-2.53 1.11-4.94 1.11-4.94 3.75-5.12z" fill="#E6492A"/>
<path transform="translate(949 1193)" d="m0 0c1.08 0.01 2.16 0.02 3.27 0.03 1.75 0.01 1.75 0.01 3.53 0.02 1.23 0.02 2.45 0.03 3.71 0.05 1.23 0.01 2.46 0.02 3.73 0.03 3.05 0.02 6.1 0.06 9.15 0.1l1 5h-24l1 13h19l1 5h-21l1 11c7.26 0.33 14.5 0.66 22 1l1 4c-2.65 2.64-10.4 1.18-13.9 1.18-1.22 0.02-2.44 0.03-3.69 0.04-1.75 0-1.75 0-3.53 0.01-1.6 0-1.6 0-3.25 0.01-2.59-0.24-2.59-0.24-4.59-2.24-0.2-2.7-0.28-5.3-0.27-8 0-0.79 0-1.59-0.01-2.4 0-1.68 0.01-3.35 0.02-5.02 0.01-2.57 0-5.14-0.02-7.71 0-1.62 0.01-3.25 0.01-4.87 0-0.77-0.01-1.54-0.01-2.34 0.06-7.47 0.06-7.47 4.89-7.89z" fill="#E6492A"/>
<path transform="translate(581 1196)" d="m0 0c4.15 2.86 6.47 6.27 7.69 11.2 1.01 8.23 0.76 14.5-4.2 21.3-4.45 4.13-9.49 4.03-15.2 4.04-0.73 0.03-1.47 0.05-2.23 0.08-6.1 0.03-9.35-1.92-14-5.88-4.11-4.97-3.81-10-3.69-16.3 0.35-3.14 1.04-5.46 2.37-8.3h2c0.22-1.12 0.22-1.12 0.44-2.25 5.27-9.28 18.7-8.38 26.9-3.92zm-25.3 7.17c-1.92 5.78-1.68 12-1 18 1.93 3.73 4.78 5.29 8.38 7.37 5.3 1.27 9.61 1.47 14.4-1.12 2.95-2.08 4.43-3.2 6.19-6.25 0.48-3.33 0.48-3.33 0.38-6.94 0-1.2 0.01-2.41 0.02-3.65-0.57-4.88-2.24-7.24-5.65-10.7-7.24-4.54-17.4-3.3-22.8 3.28z" fill="#E6492A"/>
<path transform="translate(1008,593)" d="m0 0c1.05 0.25 1.05 0.25 2.12 0.5 3.02 0.52 5.83 0.57 8.88 0.5v2h-2c-0.2 1.77-0.38 3.54-0.56 5.31-0.11 0.99-0.21 1.97-0.32 2.99-0.29 2.8-0.29 2.8 0.88 5.7h6c-0.33 0.62-0.66 1.24-1 1.88-1.14 2.03-1.14 2.03-1 4.12-0.32 2.33-0.65 4.67-1 7l2 1c-3.46 0.06-6.92 0.09-10.4 0.12-0.98 0.02-1.96 0.04-2.98 0.06-0.94 0-1.88 0.01-2.85 0.02-1.3 0.01-1.3 0.01-2.64 0.03-2.15-0.23-2.15-0.23-4.15-2.23 0.19-0.56 0.39-1.11 0.59-1.69 1.73-5.07 3.15-10.1 4.41-15.3 1.12-4.12 2.33-8.07 4-12z" fill="#E6492A"/>
<path transform="translate(1037,1193)" d="m0 0c2.34 0.17 3.69 0.7 5.38 2.33 3.62 4.24 3.62 4.24 3.62 6.67h2l4 5h2c1.38-1.86 1.38-1.86 2.75-4.19 2.67-4.16 5.29-6.89 9.25-9.81l2 1-1 4h-2c-0.12 0.64-0.25 1.28-0.38 1.94-0.3 1.02-0.3 1.02-0.62 2.06-0.99 0.49-0.99 0.49-2 1-1.04 1.64-2.04 3.31-3 5-0.99 1.48-0.99 1.48-2 3 0.12 4.41 2.32 7.1 4.94 10.4 1.06 1.55 1.06 1.55 1.06 3.55 0.64 0.21 1.28 0.41 1.94 0.62 2.06 1.38 2.06 1.38 2.81 4.5 0.12 1.43 0.12 1.43 0.25 2.88-5.52-1.28-7.62-3.44-10.9-8-0.4-0.55-0.8-1.09-1.21-1.66-2.91-4.03-2.91-4.03-2.91-6.34-2.79 2.64-5.06 5.1-7.19 8.31-0.6 0.89-1.19 1.78-1.81 2.69h-2l-2 4-4-1c0.55-3.82 2.24-5.41 5-8l1-2h2c0.69-1.66 1.35-3.33 2-5 0.27-0.66 0.54-1.32 0.81-2 0.36-3.82-2.57-6.71-4.89-9.54-1.45-1.69-2.91-3.37-4.37-5.06-1.55-2.4-1.55-2.4-1.28-4.71 0.36-0.84 0.36-0.84 0.73-1.69z" fill="#E64A2A"/>
<path transform="translate(656,1193)" d="m0 0h2c1.3 2.6 1.19 4.62 1.28 7.52 0.04 1.11 0.08 2.21 0.11 3.35 0.04 1.15 0.07 2.31 0.11 3.51 0.07 2.27 0.14 4.55 0.22 6.83 0.03 1.01 0.06 2.03 0.09 3.07 0.17 2.43 0.32 4.45 1.19 6.72 4.76 3.42 8.01 4.78 14 4 2.87-1.17 2.87-1.17 5-3l1-3h2v-27h4c2.76 8.27 2.57 20.4-0.23 28.6-2.25 3.75-4.12 5.96-7.77 8.39-3.36 0.3-3.36 0.3-7.31 0.31-1.3 0.02-2.59 0.04-3.93 0.05-4.8-0.46-8.25-1.74-11.6-5.3-3.34-5.79-2.37-12.7-2.38-19.2-0.01-1.21-0.02-2.42-0.03-3.66-0.01-1.15-0.01-2.29-0.01-3.48 0-1.05-0.01-2.1-0.01-3.19 0.24-2.55 0.24-2.55 2.24-4.55z" fill="#E6492A"/>
<path transform="translate(621 751)" d="m0 0c0.79 0.01 1.57 0.02 2.38 0.02 1.18-0.01 1.18-0.01 2.38-0.02 5.87 0.02 5.87 0.02 8.12 2.27 0.13 2.8 0.13 2.8-0.02 6.32-0.06 1.26-0.11 2.52-0.16 3.81-0.07 1.33-0.13 2.67-0.2 4-0.05 1.34-0.11 2.68-0.17 4.02-0.14 3.28-0.29 6.57-0.45 9.85-2-1-2-1-3-4h-2l-1 2c-2.78-4.16-2-8.12-2-13h2l1-4-4-2v14h-2v4h-2v-19h-3v-6h-2v28h-2c-0.05-3.95-0.09-7.9-0.11-11.8-0.02-2.01-0.04-4.01-0.07-6.02-0.01-1.88-0.01-1.88-0.02-3.81-0.01-1.16-0.02-2.32-0.03-3.52 0.45-5.51 3.55-5.05 8.35-5.07z" fill="#FDFCFC"/>
<path transform="translate(853 1193)" d="m0 0c1.17 0.01 2.34 0.01 3.54 0.02 1.26 0 2.52 0 3.82 0.01 1.34 0 2.68 0.01 4.02 0.02s2.69 0.01 4.03 0.01c3.3 0.02 6.6 0.03 9.91 0.05v2h2v3h-13l-1 35-5-1v-33l-12-1c0-4.95 0-4.95 3.68-5.11z" fill="#E6492A"/>
<path transform="translate(759,1198)" d="m0 0c3.27-0.15 6.54-0.23 9.81-0.31 1.4-0.07 1.4-0.07 2.82-0.13 2.54-0.05 4.87-0.02 7.37 0.44 2.45 2.53 2.94 3.95 3.14 7.42-0.16 1.15-0.16 1.15-0.33 2.33-0.09 0.78-0.19 1.56-0.29 2.36-0.17 0.62-0.34 1.25-0.52 1.89-2.35 1.17-3.74 1.12-6.35 1.1-0.85-0.01-1.7-0.01-2.58-0.01-0.89-0.01-1.78-0.02-2.69-0.03-1.35 0-1.35 0-2.72-0.01-2.22-0.01-4.44-0.03-6.66-0.05-1.44-2.88-1.09-5.42-1.06-8.62 0.01-1.19 0.02-2.38 0.02-3.61 0.02-0.91 0.03-1.83 0.04-2.77z" fill="#FBFEFE"/>
<path transform="translate(457,1193)" d="m0 0c0.99 0.33 1.98 0.66 3 1 0.69 2.06 0.69 2.06 1 4h2c3 4.38 3 4.38 3 7h2c1.33 2 2.67 4 4 6h2c1.07-1.62 2.05-3.31 3-5 0.84-1.44 1.7-2.88 2.56-4.31 0.42-0.7 0.83-1.4 1.26-2.12 0.39-0.52 0.78-1.03 1.18-1.57h2l2-4h3c0.5 0.99 0.5 0.99 1 2l-1 2h-2c-0.25 0.72-0.5 1.44-0.75 2.19-1.37 3.08-3.11 5.22-5.25 7.81-0.54 0.93-1.07 1.86-1.62 2.81-0.46 0.72-0.91 1.45-1.38 2.19h-2l-1 19h-4c-1.82-1.82-1.09-4.99-1.12-7.44-0.51-7.82-3.09-11.6-7.88-17.6-1.34-2.03-2.65-4.07-3.94-6.12-0.58-0.94-1.17-1.87-1.77-2.83-0.43-0.67-0.85-1.35-1.29-2.05l2-3z" fill="#E6492A"/>
<path transform="translate(579 908)" d="m0 0c0.85 0 1.7 0.01 2.58 0.01 0.89 0.01 1.78 0.02 2.69 0.03 0.9 0 1.8 0 2.72 0.01 2.22 0.01 4.44 0.03 6.66 0.05-0.57 3.77-1.61 6.4-3.63 9.62-0.54 0.87-1.07 1.74-1.63 2.63-0.57 0.91-1.15 1.81-1.74 2.75-0.58 0.91-1.15 1.83-1.74 2.78-3.67 5.8-7.43 11.5-11.3 17.2l-3-2c0.57-2.87 0.86-3.86 3-6 0.72-1.98 1.38-3.99 2-6 1-3 1-3 2.56-4.5 1.78-1.52 1.78-1.52 1.44-4.5l-1 2h-2c-0.25-2.31-0.25-2.31 0-5 2-1.81 2-1.81 4-3l2 1v-3c-2.31-0.33-4.62-0.66-7-1v3l-7 4c0.64-3.49 2.02-6.07 4-9 2.35-1.18 3.74-1.12 6.35-1.1z" fill="#FDFCFC"/>
<path transform="translate(812,1091)" d="m0 0 4 1v56c-1.98-0.33-3.96-0.66-6-1-0.05-7.65-0.09-15.3-0.11-23-0.01-2.61-0.02-5.21-0.04-7.82-0.03-3.74-0.04-7.47-0.05-11.2-0.01-1.17-0.02-2.34-0.03-3.55v-3.28c0-0.95-0.01-1.91-0.01-2.89 0.24-2.29 0.24-2.29 2.24-4.29z" fill="#E6492A"/>
<path transform="translate(1131,1193)" d="m0 0h29l2 4-1 1h-13l-1 35-4-1c-0.03-0.86-0.05-1.72-0.08-2.6-0.09-3.19-0.19-6.38-0.29-9.57-0.05-1.38-0.09-2.76-0.13-4.14-0.06-1.98-0.12-3.97-0.18-5.96-0.04-1.19-0.08-2.38-0.11-3.61-0.17-2.54-0.47-4.7-1.21-7.12-0.7-0.06-1.4-0.12-2.12-0.18-0.91-0.09-1.82-0.17-2.76-0.26-0.9-0.08-1.8-0.16-2.74-0.24-2.38-0.32-2.38-0.32-4.38-1.32l2-4z" fill="#E6492A"/>
<path transform="translate(650,863)" d="m0 0h30l3 6-2 1-1 2h-17l-1 2h-13c-1-5-1-5 1-11z" fill="#FDFDFC"/>
<path transform="translate(870,645)" d="m0 0c3 1 3 1 4.17 2.71 0.33 0.69 0.67 1.39 1.02 2.1 0.34 0.69 0.69 1.38 1.04 2.08 0.77 2.11 0.77 2.11 0.77 6.11 0.01 0.79 0.02 1.59 0.04 2.4 0.04 4.33 0.08 8.38-1.04 12.6h-2c0.12 1.33 0.12 1.33 0.25 2.69-0.3 4.02-1.43 5.49-4.25 8.31h-2l-1-5c-0.99-0.33-1.98-0.66-3-1h2c0.19-2.62 0.38-5.25 0.56-7.88 0.09-1.11 0.09-1.11 0.17-2.26 0.4-4.05 0.4-4.05-0.73-7.86 0.64-2.34 1.31-4.67 2-7v-3c0.63-1.68 1.29-3.35 2-5z" fill="#EF6430"/>
<path transform="translate(981,751)" d="m0 0 4 2v29h-6v-3l-1-3 1-3h-2c-1-3-1-3-0.44-5.94 0.47-3.27 0.21-4.36-1.56-7.06l-3 2c-3-5.75-3-5.75-3-8 1.05-0.07 1.05-0.07 2.12-0.15 0.91-0.07 1.82-0.15 2.76-0.23 0.9-0.06 1.8-0.13 2.74-0.21 2.56-0.21 2.56-0.21 4.38-2.41z" fill="#FDFEFE"/>
<path transform="translate(629,796)" d="m0 0h2c-1.43 12.5-2.83 24.8-6 37-0.36 1.75-0.71 3.5-1.06 5.25-0.31 1.24-0.62 2.48-0.94 3.75-0.99 0.5-0.99 0.5-2 1v-5l-4-2c0.2-0.54 0.41-1.07 0.62-1.63 2.05-5.71 2.98-11 3.44-17.1 0.44-5.43 1.03-10.2 2.94-15.3v-2l4 1 1-5z" fill="#FCFCFB"/>
<path transform="translate(602,844)" d="m0 0h2c0.64 10.1 0.64 10.1-2 13.9-0.66 0.7-1.32 1.4-2 2.12-0.34 2.71-0.34 2.71 0 5 4.34 1.09 7.01 1 11-1v-2l2 1-1 2h2v-2l2 1c-0.64 1.48-1.29 2.96-1.94 4.44-0.36 0.82-0.72 1.64-1.09 2.49-0.97 2.07-0.97 2.07-1.97 3.07-1.34 0.09-2.69 0.11-4.04 0.1-0.8-0.01-1.61-0.01-2.45-0.01-0.85-0.01-1.7-0.02-2.57-0.03-0.86 0-1.71-0.01-2.59-0.01-2.12-0.01-4.23-0.03-6.35-0.05l-1-3 1-2h2c0.1-1.2 0.21-2.39 0.31-3.62 0.5-4 1.85-6.78 3.69-10.4 1.12-3.64 2.07-7.31 3-11z" fill="#FCFBFA"/>
<path transform="translate(574 611)" d="m0 0c0.99 0.8 1.98 1.61 3 2.44-0.64 0.91-1.28 1.81-1.94 2.75-1.67 2.64-2.6 4.24-3.06 7.25l-1-4h-2l-1 4-2-3c-3.4-0.68-3.4-0.68-7-1-1.34-0.31-2.68-0.63-4-1-0.69-1.82-0.69-1.82-1-4 1.44-1.56 1.44-1.56 3-3v-3c6.3-1.77 11.7-1.21 17 2.56z" fill="#E64B2A"/>
<path transform="translate(714,684)" d="m0 0c0.76 0.83 1.53 1.65 2.31 2.5 2.44 2.84 2.44 2.84 5.69 2.5v15l-2 1c-0.63 2.16-1.15 4.36-1.62 6.56-0.27 1.2-0.53 2.4-0.79 3.63-0.2 0.93-0.39 1.86-0.59 2.81-1.47-1.07-1.47-1.07-3-3-0.45-3.08-0.45-3.08-0.55-6.82-0.02-0.66-0.04-1.32-0.06-2-0.04-1.39-0.07-2.78-0.1-4.17-0.04-2.13-0.1-4.27-0.17-6.4-0.2-7.41-0.2-7.41-0.12-10.6l1-1z" fill="#EF6430"/>
<path transform="translate(952 501)" d="m0 0c1.65 0 3.29 0.01 4.94 0.02h2.61c2.78 0.01 5.55 0.02 8.32 0.03 1.87 0.01 3.75 0.01 5.62 0.01 4.61 0.02 9.21 0.03 13.8 0.05-2.78 5.88-2.78 5.88-4.78 6.97-3.11 0.05-5.79-0.68-8.79-1.47-4.74-1.38-4.74-1.38-9.43-0.5-2.58 0.07-5.12 0.1-7.69 0.07-0.7-0.01-1.4-0.01-2.13-0.02-1.73-0.01-3.46-0.03-5.18-0.05l-2-4c1-1 1-1 4.69-1.11z" fill="#FBFCFB"/>
<path transform="translate(611,597)" d="m0 0c2.43 6.33 3.59 12.2 4 19h2c1.18 3.67 1.07 7.17 1 11h-2l-1 3-2-1c-0.75-2.81-1.41-5.59-2-8.44-0.33-1.56-0.66-3.12-1-4.68-0.14-0.7-0.29-1.39-0.44-2.11-0.48-2-0.48-2-2.56-3.77-0.67-2.31-0.67-2.31-1.19-5-0.18-0.89-0.36-1.77-0.54-2.69-0.27-2.31-0.27-2.31 0.73-4.31 3-1 3-1 5-1z" fill="#FDFDFC"/>
<path transform="translate(626,1096)" d="m0 0 2 4c-2.16 2.16-7.2 1.72-10 2l-1 16h15c-3.7 2.47-5.66 2.24-10.1 2.19-1.88-0.01-1.88-0.01-3.79-0.02-3.15-0.17-3.15-0.17-5.15-1.17-0.06-3.29-0.09-6.58-0.12-9.88-0.02-0.93-0.04-1.87-0.06-2.83-0.01-1.35-0.01-1.35-0.02-2.72-0.01-0.83-0.02-1.65-0.03-2.51 0.23-2.06 0.23-2.06 2.23-4.06 2.6-0.41 2.6-0.41 5.62-0.62 1.01-0.08 2.01-0.15 3.04-0.23 0.77-0.05 1.55-0.1 2.34-0.15z" fill="#FEFEFE"/>
<path transform="translate(566,717)" d="m0 0h24v4l2 1c-0.64 0.1-1.28 0.21-1.94 0.31-1.02 0.34-1.02 0.34-2.06 0.69l-1 3-2-1-1 1c-1.33 0.36-2.66 0.7-4 1v-2h-3c-2.01-0.63-4.01-1.29-6-2l1-3h-6v-3z" fill="#EF6430"/>
<path transform="translate(867,1198)" d="m0 0c1.77-0.03 3.54-0.05 5.31-0.06 0.99-0.01 1.97-0.03 2.99-0.04 2.7 0.1 2.7 0.1 5.7 1.1v2h-12l1 5c0.09 1.45 0.13 2.91 0.13 4.36 0 0.81 0.01 1.61 0.01 2.44-0.01 0.83-0.01 1.66-0.02 2.51 0.01 0.82 0.01 1.64 0.02 2.48-0.01 5.15-0.23 10.1-1.14 15.2-0.99 0.49-0.99 0.49-2 1-1.17-3.51-1.13-6.3-1.13-10 0-0.68 0-1.36-0.01-2.06 0-1.43 0.01-2.87 0.01-4.3 0-2.2 0-4.39-0.01-6.59 0-1.39 0.01-2.79 0.01-4.18v-3.84c0.13-3.03 0.13-3.03 1.13-5.03z" fill="#FDFDFD"/>
<path transform="translate(713,1102)" d="m0 0c1.49 0.99 1.49 0.99 3 2 0.32 1.91 0.32 1.91 0.25 4.27-0.02 0.88-0.04 1.76-0.06 2.67-0.04 0.95-0.08 1.9-0.12 2.88-0.02 0.97-0.05 1.95-0.08 2.95-0.08 3.12-0.19 6.24-0.3 9.35-0.07 2.12-0.13 4.23-0.19 6.34-0.15 5.18-0.32 10.4-0.5 15.5h-2c-1.15-2.3-1.13-3.6-1.13-6.16 0-0.86-0.01-1.71-0.01-2.6 0-0.92 0.01-1.85 0.01-2.81 0-0.95 0-1.89-0.01-2.87 0-2.01 0.01-4.02 0.01-6.03 0-3.08 0-6.17-0.01-9.25 0-1.95 0.01-3.9 0.01-5.85 0-0.93-0.01-1.85-0.01-2.81 0-0.86 0.01-1.71 0.01-2.59v-2.29c0.13-1.74 0.13-1.74 1.13-2.74z" fill="#F6EEE9"/>
<path transform="translate(660,822)" d="m0 0 1 2h2l1 3 115 1v1h-118l-1-7z" fill="#FAF6F4"/>
<path transform="translate(968,1088)" d="m0 0h4c1.2 12.3 1.1 24.6 1 37h-2v-2h-2c-0.02-0.93-0.04-1.86-0.06-2.81-0.08-3.44-0.16-6.88-0.26-10.3-0.04-1.49-0.07-2.98-0.1-4.47-0.05-2.14-0.11-4.28-0.17-6.42-0.03-1.29-0.06-2.58-0.09-3.91 0-3.17 0-3.17-2.32-5.07l2-2z" fill="#FDFDFD"/>
<path transform="translate(618 751)" d="m0 0c1.28 0.02 2.55 0.05 3.87 0.07 1.92 0.03 1.92 0.03 3.88 0.05 1.48 0.04 1.48 0.04 2.99 0.08l-1 2 1 3c-1.05 0.07-1.05 0.07-2.12 0.14-0.91 0.08-1.82 0.15-2.75 0.23-1.36 0.1-1.36 0.1-2.75 0.21-2.56 0.21-2.56 0.21-4.38 2.42v-6h-2v28h-2c-0.05-3.96-0.08-7.91-0.11-11.9-0.01-2-0.04-4.01-0.06-6.02-0.01-1.88-0.01-1.88-0.02-3.8-0.01-1.17-0.02-2.33-0.03-3.53 0.34-4.19 1.34-4.74 5.48-4.99z" fill="#FAF9F7"/>
<path transform="translate(876,618)" d="m0 0c2.94 0.81 2.94 0.81 6 2l1 3h3l-1 2v3c-1.29 1.38-2.63 2.71-4 4-0.99 1.49-0.99 1.49-2 3-0.99-0.33-1.98-0.66-3-1l1-2-4-1c0.19-0.62 0.37-1.24 0.56-1.88 0.68-2.16 0.68-2.16-0.56-4.12 0.94-2.12 0.94-2.12 2-4l2 1-1-4z" fill="#EF6330"/>
<path transform="translate(606,1092)" d="m0 0h2l1 57c-0.99-0.33-1.98-0.66-3-1-1.4-37.4-1.4-37.4 0-56z" fill="#FDFDFD"/>
<path transform="translate(1023,503)" d="m0 0c7.31-0.96 13.4 3.15 19.1 7.19 0.62 0.6 1.24 1.19 1.88 1.81v2c0.99 0.33 1.98 0.66 3 1l-1 2c-4.22 0.35-5.78-0.36-9-3-1.98-1.03-3.98-2.04-6-3v-3c-1.13-0.27-2.27-0.54-3.44-0.81-1.17-0.39-2.35-0.79-3.56-1.19l-1-3z" fill="#FCFCFB"/>
<path transform="translate(747,1102)" d="m0 0h1v35c-3.29-3.29-6.05-6.18-8.81-9.81-0.61-0.79-1.21-1.58-1.83-2.4-0.45-0.59-0.9-1.18-1.36-1.79l1-2c0.62 0.49 1.24 0.99 1.88 1.5 1.96 1.69 1.96 1.69 4.12 1.5v-2h4v-20z" fill="#FAF7F5"/>
<path transform="translate(555,1206)" d="m0 0c0.99 0.49 0.99 0.49 2 1v3c0.99 0.33 1.98 0.66 3 1-0.99 0.49-0.99 0.49-2 1l2 10c1.38 0.45 2.76 0.91 4.19 1.38 3.32 1.1 6.58 2.27 9.81 3.62v2c-7.06 0.37-11-0.6-16.7-5.12-2.93-3.6-2.93-6.27-2.65-10.7 0.02-0.7 0.04-1.39 0.07-2.1 0.05-1.7 0.14-3.39 0.24-5.09z" fill="#FCFBFA"/>
<path transform="translate(617,840)" d="m0 0h4c-0.37 8.11-2.42 15.3-5 23h-2l-1-2c-0.99-0.33-1.98-0.66-3-1v-2l4-2c-0.21-0.54-0.41-1.07-0.62-1.62-0.52-3.24 0.5-5.34 1.62-8.38 0.19-0.93 0.37-1.86 0.56-2.81 0.44-2.19 0.44-2.19 1.44-3.19z" fill="#FDFDFD"/>
<path transform="translate(965,751)" d="m0 0h16l-1 3h-11l1 3c-0.44 2.69-0.44 2.69-1 5h-2v9h-2c0.01-0.71 0.02-1.43 0.04-2.16 0.07-6.48 0.07-6.48-0.6-12.9-0.44-2.94-0.44-2.94 0.56-4.94z" fill="#FBF9F8"/>
<path transform="translate(818,1102)" d="m0 0v34c-0.99-0.33-1.98-0.66-3-1v-32c2-1 2-1 3-1z" fill="#F6EEE9"/>
<path transform="translate(630,699)" d="m0 0c4.04 4.04 3.11 10.8 3.13 16.2-0.13 1.82-0.13 1.82-1.13 2.82-3.1 0.09-6.18 0.12-9.29 0.1-0.93 0-1.86-0.01-2.82-0.01-2.98 0-5.97-0.01-8.95-0.03-2.02 0-4.04-0.01-6.06-0.01-4.96-0.01-9.92-0.03-14.9-0.05v-1c1.51-0.04 1.51-0.04 3.04-0.08 3.74-0.09 7.48-0.19 11.2-0.29 1.62-0.05 3.23-0.09 4.85-0.13 2.32-0.06 4.65-0.12 6.97-0.18 0.72-0.02 1.44-0.04 2.18-0.05 3.76-0.11 7.03-0.53 10.8-1.27l1-16z" fill="#F9F4F1"/>
<path transform="translate(1073,1097)" d="m0 0c3.92-0.12 7.83-0.19 11.8-0.25 1.67-0.05 1.67-0.05 3.37-0.1 1.07-0.01 2.14-0.03 3.24-0.04 0.98-0.02 1.97-0.04 2.98-0.06 3.36 0.57 4.52 1.88 6.66 4.45l-3 2-1-1c-2.18-0.21-4.37-0.37-6.56-0.5-1.27-0.09-2.53-0.17-3.83-0.26-1.19-0.08-2.38-0.16-3.61-0.24-2.76-0.19-5.27-0.48-8-1l-2-3z" fill="#FBF8F7"/>
<path transform="translate(1180 1097)" d="m0 0c1.25-0 2.49-0.01 3.78-0.01 3.28 0.13 3.28 0.13 6.28 1.13v2h-16c0.33 1.99 0.66 3.97 1 6-0.33 0.33-0.66 0.67-1 1-0.37 2.33-0.7 4.67-1 7h-2v-16c2.96-1.47 5.65-1.13 8.94-1.12z" fill="#FBFAF8"/>
<path transform="translate(517,921)" d="m0 0 2 1c-2.94 3.63-5.86 6.99-9.5 9.94-2.65 2.17-4.58 4.39-6.56 7.18-2.59 3.65-5.07 5.67-8.94 7.88v-3c0.99-0.33 1.98-0.66 3-1 0.12-0.58 0.25-1.15 0.38-1.75 0.93-3.35 3.1-4.9 5.62-7.25 0.89-0.93 1.77-1.86 2.69-2.81 2.31-2.19 2.31-2.19 4.31-2.19l1-3c1.88-1.84 3.93-3.37 6-5z" fill="#FCFBFA"/>
<path transform="translate(949,1198)" d="m0 0c3.6-0.03 7.21-0.05 10.8-0.06 1.03-0.01 2.05-0.02 3.11-0.03 1.47 0 1.47 0 2.97-0.01 0.91 0 1.82-0.01 2.75-0.01 2.36 0.11 2.36 0.11 5.36 1.11v2c-10.4 0.49-10.4 0.49-21 1v2l-4-1v-5z" fill="#FDFDFD"/>
<path transform="translate(426 1097)" d="m0 0c1.23 0.01 1.23 0.01 2.48 0.03 0.94 0.01 0.94 0.01 1.9 0.03-0.33 1.32-0.67 2.64-1 4h-7c0.18 0.87 0.37 1.74 0.56 2.63 0.44 3.42 0.15 6.01-0.56 9.37-1 0.33-1.99 0.66-3 1v-16c2.4-1.2 3.94-1.1 6.62-1.06z" fill="#FDFCFB"/>
<path transform="translate(521,492)" d="m0 0h2c-0.46 4.72-1.1 8.17-4 12h-2c-0.99 3.3-1.98 6.6-3 10h-2c-1.12-1.73-1.12-1.73-2-4 0.68-2.14 0.68-2.14 1.88-4.25 0.38-0.71 0.77-1.41 1.17-2.14 0.32-0.53 0.63-1.06 0.95-1.61h2c0.31-0.95 0.62-1.9 0.94-2.88 1.06-3.12 1.06-3.12 2.06-5.12h2v-2z" fill="#FCFBFB"/>
<path transform="translate(649,1123)" d="m0 0 1 5h-1l-1 5h2v5c-1.88-0.62-1.88-0.62-4-2-1.25-3.12-1.25-3.12-2-6h-2l-1-6c2.71-1.35 5.01-1.07 8-1z" fill="#FBF9F7"/>
<path transform="translate(967,696)" d="m0 0h2c0.06 1.05 0.12 2.1 0.18 3.18 0.09 1.37 0.17 2.75 0.26 4.13 0.04 0.69 0.08 1.38 0.12 2.09 0.19 3.07 0.46 5.67 1.44 8.6l-1 2h13v1c-5.08 0.85-9.85 1.26-15 1-2-2-2-2-2.14-4.06 0.06-0.83 0.11-1.66 0.16-2.51 0.06-0.9 0.11-1.79 0.16-2.72 0.06-0.93 0.13-1.87 0.2-2.83 0.05-0.95 0.11-1.89 0.17-2.87 0.14-2.34 0.29-4.67 0.45-7.01z" fill="#FAF8F6"/>
<path transform="translate(1071,1126)" d="m0 0c2.31 0.33 4.62 0.66 7 1l-3 2c-0.29 2.93-0.29 2.93-0.06 6.25 0.21 4.78-0.2 8.28-1.94 12.8-2-2-2-2-2.23-4.06 0.01-0.83 0.02-1.66 0.03-2.51 0.01-0.9 0.02-1.79 0.02-2.72 0.02-0.93 0.04-1.87 0.06-2.83 0-0.95 0.01-1.89 0.02-2.87 0.03-2.34 0.06-4.67 0.1-7.01z" fill="#FDFDFD"/>
<path transform="translate(1059,892)" d="m0 0c2 1.38 2 1.38 4 3v2l4 2v3c0.62 0.06 1.24 0.12 1.88 0.19 2.12 0.81 2.12 0.81 3.37 3.37 0.25 0.81 0.49 1.61 0.75 2.44h3c-0.09 1.36-0.09 1.36-0.19 2.75 0.21 3.54 0.84 4.7 3.19 7.25-1.75-0.12-1.75-0.12-4-1-1.5-1.98-2.75-3.87-4-6-0.87-1.44-1.75-2.88-2.62-4.31-0.41-0.68-0.81-1.36-1.23-2.05-1.07-1.8-1.07-1.8-3.15-2.64-0.73-1.98-1.4-3.98-2-6h-2l-1-4z" fill="#FAF6F3"/>
<path transform="translate(994,839)" d="m0 0c2.78 2.78 3.19 5.18 4 9-0.38 3.94-0.38 3.94-1 7-4.75-0.75-4.75-0.75-7-3 0.35-2.26 0.98-3.95 2-6h-2c1-2 1-2 4-3v-4z" fill="#FDFCFC"/>
<path transform="translate(991,828)" d="m0 0c3.25 4.88 3.11 9.22 3 15h-2l-1 2c-1.35-2.71-1.07-5.01-1-8h-3c-0.12-5.75-0.12-5.75 1-8 0.99-0.33 1.98-0.66 3-1z" fill="#FDFEFE"/>
<path transform="translate(950,605)" d="m0 0c1.33 4 0.19 6.94-0.88 10.9-0.37 1.41-0.74 2.82-1.11 4.24-0.18 0.66-0.35 1.33-0.54 2.02-0.57 2.27-1.04 4.55-1.47 6.86l-2-2v-4l-2-1 4-8-2-2 1-2h3c0.14-0.64 0.29-1.28 0.44-1.94 0.56-2.06 0.56-2.06 1.56-3.06z" fill="#FCFBFB"/>
<path transform="translate(880,536)" d="m0 0h1c0.14 0.97 0.29 1.94 0.44 2.94 0.24 2.92 0.24 2.92 1.56 4.06-0.33 0.76-0.66 1.53-1 2.31-1.17 2.68-1.17 2.68-1 5.69h-5v4l-2-1c-0.38-5.23 0.78-8.38 3-13h3c-0.28-0.96-0.28-0.96-0.56-1.94-0.15-0.68-0.29-1.36-0.44-2.06l1-1z" fill="#E84F2B"/>
<path transform="translate(759,1198)" d="m0 0c2.77-0.08 5.54-0.14 8.31-0.19 0.79-0.02 1.57-0.05 2.38-0.07 0.76-0.01 1.52-0.02 2.3-0.03 1.04-0.03 1.04-0.03 2.11-0.05 2.44 0.44 3.33 1.47 4.9 3.34-3 1-3 1-6.31 0.5-3.58-0.49-6.19-0.27-9.69 0.5v3l-2-1-2 4v-10z" fill="#FDFEFE"/>
<path transform="translate(552,750)" d="m0 0c1.07 0.07 2.15 0.14 3.25 0.22 1.44 0.09 2.88 0.19 4.31 0.28 0.71 0.05 1.41 0.1 2.14 0.14 3.43 0.23 6.76 0.35 10.2 0.27 3.1 0.09 3.1 0.09 5.1 2.09v4h-2l-1-2c-1.17-0.06-2.34-0.12-3.54-0.18-1.55-0.09-3.1-0.17-4.65-0.26-0.77-0.04-1.54-0.08-2.33-0.12-3.91-0.22-7.65-0.53-11.5-1.44v-3z" fill="#FCFAF9"/>
<path transform="translate(1018,930)" d="m0 0 2 4h2c1.55 2.21 2.89 4.51 4.27 6.84 2.05 2.55 3.71 3.04 6.73 4.16 1.55 2.32 2.8 4.51 4 7l-2 2c-4.8-3.45-4.8-3.45-5.81-6.25-0.06-0.58-0.13-1.15-0.19-1.75h-2l-2-5h-2c-0.27-0.97-0.54-1.94-0.81-2.94-0.39-1.01-0.79-2.02-1.19-3.06-0.99-0.33-1.98-0.66-3-1l-1-3 1-1z" fill="#F9F5F2"/>
<path transform="translate(982,789)" d="m0 0c0.12 0.56 0.25 1.11 0.38 1.69 0.56 2.36 0.56 2.36 1.74 4.62 1.15 3.51 0.58 6.12-0.12 9.69h2l-1-5c2.03 1.42 2.9 2.55 3.42 4.98 0.24 2 0.42 4.01 0.58 6.02-0.99 0.33-1.98 0.66-3 1-2.85-3.2-3.41-5.44-3.62-9.69 0.09-3.47 0.09-3.47-1.38-6.31-0.12-3-0.12-3 0-6l1-1z" fill="#FCFBFA"/>
<path transform="translate(595 616)" d="m0 0c2.41 1.25 2.92 2.41 3.81 4.94v3c-4.16 0.08-7.94-0.02-12-1 0.19-1.82 0.19-1.82 1-4 2.47-1.94 4.01-3.03 7.19-2.94z" fill="#E84E2B"/>
<path transform="translate(611,616)" d="m0 0h6c1.18 3.67 1.07 7.17 1 11h-2l-1 3-2-1c-0.63-1.93-0.63-1.93-1.12-4.31-0.17-0.78-0.34-1.56-0.51-2.37-0.37-2.32-0.37-2.32-0.37-6.32z" fill="#FCFBFA"/>
<path transform="translate(570,503)" d="m0 0c2.69-0.12 2.69-0.12 6 1 3.5 4.82 5.79 9.96 5 16l-3-2v-3h-2v-3c-2.97-0.5-2.97-0.5-6-1l1-2h3l-1-3c-0.99-0.33-1.98-0.66-3-1v-2z" fill="#FCFBFA"/>
<path transform="translate(480,959)" d="m0 0-1 2h-2l-1 3c-1.64 1.04-3.31 2.04-5 3l-1.44 1.44c-2.25 2.25-4.89 3.84-7.56 5.56 0.24-3.7 0.95-4.94 3.55-7.68 1.05-0.89 2.12-1.77 3.2-2.63 0.79-0.68 0.79-0.68 1.59-1.38 3.28-2.69 5.4-3.9 9.66-3.31z" fill="#FCFBFA"/>
<path transform="translate(1071,1098)" d="m0 0 4 1v15h-2l-1 3c-1.27-3.87-1.11-7.73-1.06-11.8 0-0.7 0.01-1.39 0.01-2.11 0.01-1.72 0.03-3.43 0.05-5.14z" fill="#FDFCFC"/>
<path transform="translate(744,649)" d="m0 0c2.9 2.4 3.5 4.31 4 8h1c0.18 12.7 0.18 12.7-1 18h-2c0.02-0.63 0.05-1.26 0.07-1.91 0.11-5.03-0.23-9.3-1.62-14.1-0.76-3.33-0.57-6.56-0.45-9.96z" fill="#FAF7F5"/>
<path transform="translate(520,593)" d="m0 0c1.94 0.75 1.94 0.75 4 2 0.33 1.33 0.67 2.67 1 4 1.32 0.7 2.65 1.37 4 2l1 3c0.66 0.16 1.32 0.33 2 0.5 0.66 0.16 1.32 0.33 2 0.5l1 3c2.5 1.22 2.5 1.22 5 2l-2 1c-2.62-1.31-2.62-1.31-5-3v-2l-5 1c-3.94-4.31-3.94-4.31-4.25-7.81 0.08-0.72 0.16-1.45 0.25-2.19l-4-2v-2z" fill="#FAF6F4"/>
<path transform="translate(1102,1122)" d="m0 0 2 1v2c0.99-0.33 1.98-0.66 3-1l1 3h-3v3l2 2 1 3c-5.14-2.03-7.37-2.98-10-8v-3c1.88-1.06 1.88-1.06 4-2z" fill="#FCFAF9"/>
<path transform="translate(851,680)" d="m0 0c0.99 0.33 1.98 0.66 3 1v18l-4-1c0.5-8.91 0.5-8.91 1-18z" fill="#EE6230"/>
<path transform="translate(1058,1209)" d="m0 0c0.99 0.33 1.98 0.66 3 1v2c0.99 0.33 1.98 0.66 3 1-0.99 0.49-0.99 0.49-2 1 0.33 0.72 0.66 1.44 1 2.19 1.01 2.83 1.17 4.84 1 7.81h2l-1 2c-3.11-3.04-6.07-6.07-8-10 0.19-3.94 0.19-3.94 1-7z" fill="#FBF8F6"/>
<path transform="translate(715,1106)" d="m0 0c0.99 0.33 1.98 0.66 3 1v2h2c3.08 6.4 3.08 6.4 2.69 9.44-0.23 0.51-0.46 1.03-0.69 1.56l-5-1v-7l-2-1v-5z" fill="#FBFCFB"/>
<path transform="translate(660,1217)" d="m0 0c3.49 2.21 4.73 4.09 6 8h5l1 2 3 2c-5.51 0.57-8.79-0.37-13.4-3.49-1.61-1.51-1.61-1.51-2.67-4.76 0.06-2.75 0.06-2.75 1.06-3.75z" fill="#FBF9F8"/>
<path transform="translate(781,1216)" d="m0 0c3 2 3 2 3.66 4.28 0.13 0.88 0.27 1.75 0.4 2.66 0.55 3.51 0.92 5.02 2.94 8.06v3h-2c-0.96-1.89-1.92-3.79-2.88-5.69-0.53-1.05-1.06-2.11-1.61-3.2-1.3-2.67-2.45-5.34-3.51-8.11 0.99-0.33 1.98-0.66 3-1z" fill="#FBF9F7"/>
<path transform="translate(1009,1091)" d="m0 0h4c0.95 3.21 1.16 6.15 1.19 9.5 0.01 0.94 0.03 1.88 0.04 2.84-0.24 2.72-0.85 4.34-2.23 6.66l-2-1c0.01-1.13 0.02-2.26 0.04-3.43 0-1.48 0.01-2.96 0.02-4.45 0.01-0.74 0.02-1.49 0.03-2.26 0.12-4.06 0.12-4.06-1.09-7.86z" fill="#FBF9F8"/>
<path transform="translate(546,741)" d="m0 0c3.09 1.75 5.5 3.5 8 6 3.01 1 5.04 1.1 8.19 1.06 0.9-0.01 1.8-0.02 2.73-0.02 1.03-0.02 1.03-0.02 2.08-0.04l1 4c-7.61-0.16-13.9-1.11-20-6-1.56-2.81-1.56-2.81-2-5z" fill="#EF6330"/>
<path transform="translate(482,1194)" d="m0 0h3l-1 4h-2c-0.25 0.72-0.5 1.44-0.75 2.19-1.37 3.07-3.13 5.22-5.25 7.81-0.71 1.31-1.39 2.64-2 4l-4-2v-3c1.05-0.29 2.1-0.58 3.19-0.88 4.68-1.93 5.99-5.6 7.96-10 0.28-0.69 0.56-1.37 0.85-2.08z" fill="#FCFAF9"/>
<path transform="translate(602,844)" d="m0 0h2c0.63 9.98 0.63 9.98-1.81 13.9-0.72 0.68-1.45 1.36-2.19 2.06-1.01 1.33-2.01 2.66-3 4 0.52-4.91 1.63-9.23 3.28-13.9 0.69-2.02 1.23-4.03 1.72-6.11z" fill="#FBF9F7"/>
<path transform="translate(1090,521)" d="m0 0h3l1 7h1v13c-3-2-3-2-3.44-3.88-0.04-0.74-0.08-1.48-0.12-2.24-0.25-3.26-0.71-6.23-1.56-9.38-0.29-1.15-0.58-2.31-0.88-3.5l1-1z" fill="#FCFBFA"/>
<path transform="translate(696,751)" d="m0 0c-2 3-2 3-3.96 3.58-6.95 0.67-13.2-0.16-20-1.58v-1c8.01-1.03 15.9-1.1 24-1z" fill="#FCFAF9"/>
<path transform="translate(1176 1122)" d="m0 0c1.04 0.01 2.07 0.02 3.14 0.03 1.12 0.01 2.25 0.01 3.4 0.02 1.18 0.02 2.35 0.03 3.56 0.05 1.78 0.02 1.78 0.02 3.59 0.03 2.93 0.02 5.86 0.06 8.79 0.1-3.27 2.18-3.94 2.21-7.67 1.97-0.89-0.05-1.79-0.1-2.71-0.15-0.92-0.07-1.85-0.13-2.81-0.2-0.94-0.05-1.88-0.11-2.85-0.17-2.32-0.14-4.64-0.29-6.96-0.45l-2 7h-2c-0.13-2.88-0.13-2.88 0-6 2-2 2-2 4.52-2.23z" fill="#FBFBFA"/>
<path transform="translate(569,946)" d="m0 0 2 1c-1.05 1.19-1.05 1.19-2.12 2.41-0.92 1.07-1.84 2.14-2.76 3.21-0.46 0.53-0.92 1.05-1.39 1.59-2.93 3.43-4.59 6.43-5.73 10.8-1.06-1.81-1.06-1.81-2-4l1-3 2-1c0.22-0.99 0.22-0.99 0.44-2 0.18-0.66 0.37-1.32 0.56-2 0.99-0.33 1.98-0.66 3-1l1-2-2-1c2.62-3 2.62-3 6-3z" fill="#FCFAF9"/>
<path transform="translate(614,1126)" d="m0 0c0.99 0.33 1.98 0.66 3 1 0.05 2.46 0.09 4.92 0.12 7.38 0.02 0.69 0.04 1.39 0.06 2.11 0.01 1.84-0.08 3.68-0.18 5.51l-2 2c-1-1-1-1-1.1-4.82 0.01-1.58 0.02-3.16 0.04-4.74 0-0.81 0.01-1.62 0.01-2.45 0.01-1.99 0.03-3.99 0.05-5.99z" fill="#FDFDFD"/>
<path transform="translate(1033,717)" d="m0 0c5.58-0.29 9.17-0.18 14 3l1 3-15-3v-3z" fill="#EF6330"/>
<path transform="translate(837,717)" d="m0 0h15v3c-5.75 1.12-5.75 1.12-8 0-2.01 0.28-4.01 0.61-6 1l-1-4z" fill="#EF6330"/>
<path transform="translate(573,715)" d="m0 0c-4.21 2.81-7.25 3.13-12.2 3.06-0.89-0.01-1.78-0.02-2.7-0.02-0.68-0.02-1.35-0.03-2.05-0.04l1-3c4.65-2.33 11.1-0.99 16 0z" fill="#FCFBFB"/>
<path transform="translate(884,699)" d="m0 0h2c1.59 3.19 1.1 6.63 1.06 10.1 0 0.76-0.01 1.51-0.01 2.29-0.01 1.86-0.03 3.73-0.05 5.59h-2c-1.59-3.19-1.1-6.63-1.06-10.1 0-0.76 0.01-1.51 0.01-2.29 0.01-1.86 0.03-3.73 0.05-5.59z" fill="#F6EEE9"/>
<path transform="translate(1006,600)" d="m0 0c-0.28 1.61-0.58 3.21-0.88 4.81-0.16 0.9-0.32 1.79-0.49 2.71-0.63 2.48-0.63 2.48-2.63 5.48-0.12-0.8-0.25-1.61-0.38-2.44-0.3-1.27-0.3-1.27-0.62-2.56l-2-1c0.25-2.88 0.25-2.88 1-6 3.22-2.39 3.22-2.39 6-1z" fill="#FCFBFA"/>
<path transform="translate(949,1216)" d="m0 0 17 1v1h-14c-0.02 1.28-0.04 2.56-0.06 3.88-0.01 0.71-0.03 1.43-0.04 2.17-0.03 2.03-0.03 2.03 1.1 3.95l-4-1v-11z" fill="#FDFDFD"/>
<path transform="translate(460,1194)" d="m0 0c0.93 0.28 0.93 0.28 1.88 0.56 2.16 0.68 2.16 0.68 4.12-0.56 0.48 1.42 0.96 2.83 1.44 4.25 0.4 1.18 0.4 1.18 0.81 2.39 0.67 2.11 1.24 4.21 1.75 6.36h-2v-2h-2c-3-4.38-3-4.38-3-7h-2l-1-4z" fill="#FBF9F7"/>
<path transform="translate(626,1096)" d="m0 0 2 4h-12l-1 2-2-1c0.65-1.95 0.65-1.95 2-4 2.6-0.61 2.6-0.61 5.62-0.75 1.01-0.06 2.01-0.11 3.04-0.17 1.16-0.04 1.16-0.04 2.34-0.08z" fill="#F6EEE9"/>
<path transform="translate(918 751)" d="m0 0c1.39 0.01 2.79 0.02 4.18 0.04 0.71 0 1.43 0 2.16 0.01 1.76 0.01 3.52 0.03 5.28 0.05v3c-2.29 0.05-4.58 0.09-6.87 0.12-1.92 0.04-1.92 0.04-3.87 0.07-3.26-0.19-3.26-0.19-5.26-2.19 1-1 1-1 4.38-1.1z" fill="#FCFAF9"/>
<path transform="translate(973,606)" d="m0 0c-0.31 0.91-0.62 1.82-0.94 2.75-0.79 2.42-1.49 4.78-2.06 7.25l-5-1c0.49-5.49 0.49-5.49 2.88-7.88 2.12-1.12 2.12-1.12 5.12-1.12z" fill="#EE602F"/>
<path transform="translate(616,1104)" d="m0 0v16c-0.99-0.33-1.98-0.66-3-1v-14c2-1 2-1 3-1z" fill="#F6EEE9"/>
<path transform="translate(1105,1092)" d="m0 0c0.99 0.33 1.98 0.66 3 1v3h4l1 7h-2l-1 3c-0.27-0.7-0.54-1.4-0.81-2.12-1.17-2.96-1.17-2.96-2.81-6-1.38-2.88-1.38-2.88-1.38-5.88z" fill="#FBFAF8"/>
<path transform="translate(592,590)" d="m0 0c1.49 0.99 1.49 0.99 3 2l-1 4h2c0.8 3.29 1.1 4.71 0 8h-2c-3.63-9.41-3.63-9.41-2-14z" fill="#FCFAF9"/>
<path transform="translate(572,464)" d="m0 0v2l4 1-17 4c2.26-4.52 2.26-4.52 5.94-5.75 0.69-0.24 1.38-0.48 2.09-0.73 1.97-0.52 1.97-0.52 4.97-0.52z" fill="#FCFBFA"/>
<path transform="translate(998,853)" d="m0 0c3.24 3.73 5.51 8.3 7 13l-1 3c-0.56-1.13-1.11-2.27-1.69-3.44-1.73-3.11-1.73-3.11-5.06-4.5-1.11-0.03-1.11-0.03-2.25-0.06v-3l2-1c0.65-2.02 0.65-2.02 1-4z" fill="#FBF9F8"/>
<path transform="translate(613,501)" d="m0 0h9l-1 5h-3l-1 2h-2l-1-4h-2l1-3z" fill="#FBFAF9"/>
<path transform="translate(1041,580)" d="m0 0 2 1c-1.39 0.96-2.79 1.92-4.19 2.88-0.77 0.53-1.55 1.06-2.35 1.61-2.46 1.51-4.7 2.65-7.46 3.51-0.99-0.33-1.98-0.66-3-1 3.41-3.98 7.96-5.92 13-7l2-1z" fill="#FCFAF9"/>
<path transform="translate(562,1198)" d="m0 0c3.19-0.4 3.19-0.4 7-0.38 1.89-0.01 1.89-0.01 3.81-0.02 1.05 0.13 2.11 0.26 3.19 0.4l2 3h-18l2-3z" fill="#FCFBFA"/>
<path transform="translate(1176,1097)" d="m0 0c1.77-0.03 3.54-0.05 5.31-0.06 0.99-0.01 1.97-0.03 2.99-0.04 2.7 0.1 2.7 0.1 5.7 1.1v2h-15l1-3z" fill="#F6EEE9"/>
<path transform="translate(1133,970)" d="m0 0c2.31 0.33 4.62 0.66 7 1l1 3 3 2-2 4-2-1v-2h-2c-1.29-1.53-1.29-1.53-2.62-3.5-0.67-0.97-0.67-0.97-1.36-1.97-0.33-0.5-0.67-1.01-1.02-1.53z" fill="#FAF7F4"/>
<path transform="translate(1123,960)" d="m0 0 5 1v2c1.21 0.43 1.21 0.43 2.44 0.88 2.56 1.12 2.56 1.12 3.56 3.12-2.19 0.75-2.19 0.75-5 1-2.69-1.88-2.69-1.88-5-4l-2-1 1-3z" fill="#FBF9F7"/>
<path transform="translate(976,642)" d="m0 0h2l-1 18c-3-3-3-3-3.11-6.07 0.12-1.15 0.24-2.3 0.36-3.49 0.11-1.16 0.22-2.32 0.33-3.51 0.42-2.93 0.42-2.93 1.42-4.93z" fill="#FBF9F8"/>
<path transform="translate(853,650)" d="m0 0h3v13c-0.99 0.5-0.99 0.5-2 1-1.38-2.76-1.1-5.05-1.06-8.12 0.01-1.1 0.02-2.2 0.02-3.33 0.02-0.84 0.03-1.68 0.04-2.55z" fill="#EE6230"/>
<path transform="translate(1045,1225)" d="m0 0h2c-1.53 3.44-3.5 6.19-6 9h-2v2h-3l-1-5c0.72 0.12 1.44 0.25 2.19 0.38 4.25-0.57 5.24-3.04 7.81-6.38z" fill="#F8F5F2"/>
<path transform="translate(984,809)" d="m0 0c2.48 0.99 2.48 0.99 5 2v8h-3l-3-9 1-1z" fill="#FDFEFE"/>
<path transform="translate(690,556)" d="m0 0c0.99 0.33 1.98 0.66 3 1 0.62 2.88 0.62 2.88 1 6l-2 2c-0.17 2.58-0.17 2.58 0 5l-3-2c-0.41-2.71-0.13-5.24 0-8h2l-1-4z" fill="#FCFBFA"/>
<path transform="translate(568,983)" d="m0 0c1.69 0.09 3.38 0.25 5.06 0.44 1.38 0.15 1.38 0.15 2.79 0.31 0.71 0.08 1.42 0.16 2.15 0.25v3l2 1c-1.61-0.09-3.21-0.2-4.81-0.31-1.34-0.09-1.34-0.09-2.71-0.18-2.79-0.57-3.72-1.33-5.48-3.51l1-1z" fill="#FDFCFB"/>
<path transform="translate(883,549)" d="m0 0c0.99 0.33 1.98 0.66 3 1-0.99 0.33-1.98 0.66-3 1v-2zm-2 2c1.68 0.29 3.34 0.62 5 1l-2 7c-0.99-0.33-1.98-0.66-3-1-0.38-1.99-0.71-3.99-1-6l1-1zm-2 7h2l-1 2-1-2z" fill="#E9532C"/>
<path transform="translate(782,1203)" d="m0 0c-0.11 1.48-0.24 2.96-0.38 4.44-0.06 0.82-0.13 1.64-0.21 2.49-0.13 0.69-0.27 1.37-0.41 2.07-2.88 1.44-5.42 1.09-8.62 1.06-1.19-0.01-2.38-0.02-3.61-0.02-0.91-0.02-1.83-0.03-2.77-0.04v-1c6.43-0.49 6.43-0.49 13-1l1-6-2-1c3-1 3-1 4-1z" fill="#FDFEFE"/>
<path transform="translate(532,961)" d="m0 0c0.99 0.33 1.98 0.66 3 1l-4 2v2h-2l-1 4h-3l-2 4-1-4c1.29-1.17 2.58-2.34 3.88-3.5 0.71-0.65 1.43-1.3 2.17-1.97 1.95-1.53 1.95-1.53 3.95-1.53v-2z" fill="#FAF9F7"/>
<path transform="translate(967,762)" d="m0 0c2 2 2 2 2.2 5.7-0.02 1.47-0.04 2.95-0.08 4.42 0 0.76-0.01 1.51-0.02 2.29-0.03 1.86-0.06 3.73-0.1 5.59l-2-1c-1.16-5.89-0.89-11.1 0-17z" fill="#FDFEFE"/>
<path transform="translate(651,1100)" d="m0 0c4 3 4 3 4.39 5.7-0.05 0.99-0.09 1.97-0.14 2.99-0.04 0.99-0.07 1.99-0.11 3.01-0.05 0.76-0.09 1.52-0.14 2.3-0.99-0.33-1.98-0.66-3-1l-1-13z" fill="#F6EEE9"/>
<path transform="translate(530,903)" d="m0 0h2c-1.4 4.1-3.37 6.98-6.12 10.3-0.73 0.89-1.45 1.77-2.2 2.68-0.83 0.99-0.83 0.99-1.68 2.01l-1-4c0.99-0.33 1.98-0.66 3-1v-2h2c0.29-0.58 0.58-1.15 0.88-1.75 1.04-2.08 2.08-4.17 3.12-6.25z" fill="#FCFBFA"/>
<path transform="translate(666,705)" d="m0 0c1.49 0.99 1.49 0.99 3 2 0.29 2.16 0.29 2.16 0.19 4.62-0.03 0.82-0.06 1.64-0.08 2.48-0.04 0.63-0.07 1.25-0.11 1.9l2 1-5-1v-11z" fill="#FDFCFB"/>
<path transform="translate(717,527)" d="m0 0h2c0.51 1.25 1.01 2.5 1.5 3.75 0.28 0.7 0.56 1.39 0.84 2.11 0.66 2.14 0.66 2.14 0.66 6.14h-3c-1.29-4.12-2.26-7.67-2-12z" fill="#E9522C"/>
<path transform="translate(662,1231)" d="m0 0c1.77 0.11 3.54 0.24 5.31 0.38 1.48 0.1 1.48 0.1 2.99 0.21 2.7 0.41 2.7 0.41 5.7 2.41-1 1-1 1-3.29 1.1-1.37-0.02-1.37-0.02-2.77-0.04-0.92-0.01-1.84-0.02-2.79-0.02-0.71-0.02-1.42-0.03-2.15-0.04v-2c-0.99-0.33-1.98-0.66-3-1v-1z" fill="#F6EEE9"/>
<path transform="translate(1043,1196)" d="m0 0h5c3.08 5.42 3.08 5.42 2.69 8.38-0.23 0.53-0.46 1.07-0.69 1.62l-2-4h-2l-3-6z" fill="#FCFBFA"/>
<path transform="translate(551,940)" d="m0 0h2c-0.47 4.25-2.97 6.2-6 9-0.99-0.33-1.98-0.66-3-1 1.12-1.34 2.24-2.67 3.38-4 0.93-1.11 0.93-1.11 1.89-2.25 0.57-0.58 1.14-1.15 1.73-1.75zm-9 10 2 1v2c-0.99-0.33-1.98-0.66-3-1l1-2z" fill="#FAF9F8"/>
<path transform="translate(1105,943)" d="m0 0c1.5 1.38 1.5 1.38 3 3v2c0.6 0.29 1.2 0.58 1.81 0.88 2.19 1.12 2.19 1.12 5.19 3.12l-1 3c-1.27-0.93-2.54-1.87-3.81-2.81-0.71-0.52-1.42-1.05-2.15-1.58-1.84-1.45-3.5-2.84-5.04-4.61v-2l2-1z" fill="#FCFAF8"/>
<path transform="translate(627,784)" d="m0 0c2.48 0.99 2.48 0.99 5 2-0.62 6.52-0.62 6.52-2.56 8.94-0.48 0.35-0.95 0.7-1.44 1.06v-6l-1-1c-0.04-1.67-0.04-3.33 0-5z" fill="#FCFCFC"/>
<path transform="translate(660,653)" d="m0 0 1 2h2c1.23 5.42 1.23 5.42 0.06 8.38-0.35 0.53-0.7 1.07-1.06 1.62h-2c-0.19-1.81-0.38-3.62-0.56-5.44-0.11-1.01-0.21-2.02-0.32-3.06-0.04-0.82-0.08-1.65-0.12-2.5l1-1z" fill="#FCFBFA"/>
<path transform="translate(535,479)" d="m0 0 2 1c-0.47 4.25-2.97 6.2-6 9l-4-2 1-3c0.99-0.33 1.98-0.66 3-1v2c1.95-1.95 2.85-3.53 4-6z" fill="#FCFAF9"/>
<path transform="translate(961,1209)" d="m0 0c1.44-0.08 2.87-0.14 4.31-0.19 1.2-0.05 1.2-0.05 2.43-0.1 2.74 0.35 3.55 1.18 5.26 3.29l-2 5h-1l-1-5c-2.97-0.33-5.94-0.66-9-1l1-2z" fill="#FDFDFC"/>
<path transform="translate(1169 1088)" d="m0 0c0.95 0.04 1.9 0.08 2.88 0.12v2h9v1c-0.97 0.07-1.93 0.13-2.93 0.19-1.26 0.08-2.52 0.17-3.83 0.25-1.25 0.08-2.5 0.16-3.79 0.25-2.64 0.24-4.94 0.56-7.45 1.31 1.32-3.98 1.84-4.95 6.12-5.12z" fill="#FDFDFD"/>
<path transform="translate(562,1232)" d="m0 0c1.58-0.05 3.17-0.09 4.75-0.12 0.88-0.03 1.76-0.05 2.67-0.08 2.69 0.21 4.28 0.83 6.58 2.2-2.47 1.23-4.25 1.2-7 1.25-0.89 0.03-1.77 0.05-2.69 0.08-0.76-0.11-1.52-0.22-2.31-0.33l-2-3z" fill="#F6EEE9"/>
<path transform="translate(1036,925)" d="m0 0c3.18 3.89 6.11 7.9 9 12-0.99 0.33-1.98 0.66-3 1-2.7-3.47-5.03-7.06-7-11l1-2z" fill="#FAF8F6"/>
<path transform="translate(576,767)" d="m0 0h1c0.19 7.66 0.35 14.7-2 22h-1c-0.03-1.81-0.05-3.62-0.06-5.44-0.01-1.01-0.03-2.02-0.04-3.06 0.1-2.5 0.1-2.5 1.1-3.5 0.23-1.68 0.41-3.37 0.56-5.06 0.09-0.92 0.17-1.84 0.26-2.79 0.06-0.71 0.12-1.42 0.18-2.15z" fill="#FAF6F4"/>
<path transform="translate(931,714)" d="m0 0h2l-1 3c-6.86 0.95-13.1 0.95-20 0v-1c1.29-0.06 2.58-0.12 3.9-0.18 1.68-0.09 3.36-0.17 5.04-0.26 1.27-0.06 1.27-0.06 2.57-0.12 0.81-0.04 1.62-0.08 2.45-0.12 1.13-0.06 1.13-0.06 2.27-0.11 1.79-0.03 1.79-0.03 2.77-1.21z" fill="#FCFAF9"/>
<path transform="translate(538,1147)" d="m0 0v1l-8 1v2c-2.31-0.33-4.62-0.66-7-1v-2c5.08-0.85 9.85-1.09 15-1z" fill="#FBFAF9"/>
<path transform="translate(1036,952)" d="m0 0c2.06 0.44 2.06 0.44 4 1 1.12 4.75 1.12 4.75 0 7-3.4-1.13-4.05-2.13-6-5 1-2 1-2 2-3z" fill="#FDFCFC"/>
<path transform="translate(981,751)" d="m0 0 4 2v10l-2-1v-8l-4-1 2-2z" fill="#FDFCFB"/>
<path transform="translate(1054,728)" d="m0 0h3c1.12 4.69 0.81 7.54-1 12-2.14-3.2-2.23-4.02-2.12-7.69 0.01-0.81 0.03-1.61 0.05-2.45 0.02-0.61 0.05-1.23 0.07-1.86z" fill="#FCFBFA"/>
<path transform="translate(1e3 624)" d="m0 0c5.16 0.02 10.1 0.39 15.2 1.13v1h-14l-1 2-3-3c1-1 1-1 2.79-1.13z" fill="#FAF6F3"/>
<path transform="translate(950,605)" d="m0 0c1.42 4.25 0.19 6.72-1 11l-5-4 1-2h3c0.14-0.64 0.29-1.28 0.44-1.94 0.56-2.06 0.56-2.06 1.56-3.06z" fill="#FCFAF9"/>
<path transform="translate(864,587)" d="m0 0h2c-0.88 3.88-0.88 3.88-2 5-0.4 2.69-0.75 5.36-1.06 8.06-0.09 0.76-0.18 1.52-0.28 2.3l-0.66 5.64h-1c0.11-2.94 0.24-5.88 0.38-8.81 0.03-0.84 0.06-1.67 0.09-2.53 0.04-0.8 0.08-1.6 0.12-2.43 0.03-0.74 0.06-1.48 0.09-2.24 0.32-1.99 0.32-1.99 2.32-4.99z" fill="#FBF8F6"/>
<path transform="translate(748,715)" d="m0 0 1 2h8v3h-9v-5z" fill="#EE6230"/>
<path transform="translate(512,1128)" d="m0 0 1 3c2.02 0.73 2.02 0.73 4 1 0.62 1.88 0.62 1.88 1 4l-2 2c-2.76-2.49-4.62-4.2-5-8l1-2z" fill="#FBF8F6"/>
<path transform="translate(993,958)" d="m0 0c1.88 0.62 1.88 0.62 4 2 1.25 3.12 1.25 3.12 2 6h2l-1 2c-2.38-1.06-2.38-1.06-5-3-1.31-3.69-1.31-3.69-2-7z" fill="#FBFBF9"/>
<path transform="translate(1e3 613)" d="m0 0h2c-0.47 4.06-0.88 7.47-3 11l-2-2 3-9z" fill="#EE6130"/>
<path transform="translate(698,580)" d="m0 0c2 1.62 2 1.62 4 4 0.25 3.25 0.25 3.25 0 6-0.99-0.33-1.98-0.66-3-1-1.48-2.96-1.06-5.74-1-9z" fill="#EF6330"/>
<path transform="translate(901,577)" d="m0 0c1.41 2.81 0.67 4.57 0.06 7.62-0.19 1.01-0.39 2.01-0.59 3.04-0.15 0.77-0.31 1.55-0.47 2.34h-3c0.09-1.61 0.2-3.21 0.31-4.81 0.06-0.9 0.12-1.79 0.18-2.71 0.57-2.79 1.33-3.72 3.51-5.48z" fill="#F06531"/>
<path transform="translate(576,510)" d="m0 0 4 1 1 9-3-2v-3h-2v-5z" fill="#FCFCFC"/>
<path transform="translate(615,751)" d="m0 0h11v2c-2.69 1.19-2.69 1.19-6 2-2.88-1.31-2.88-1.31-5-3v-1z" fill="#FCFAF9"/>
<path transform="translate(954,692)" d="m0 0 2 3c-1.37 3.16-1.99 3.99-5 6-0.75-2.25-0.75-2.25-1-5 1.94-2.31 1.94-2.31 4-4z" fill="#F06531"/>
<path transform="translate(558,617)" d="m0 0 1 2h7l2 4c-4.56-0.54-7.97-1.79-12-4l2-2z" fill="#F06531"/>
<path transform="translate(695,560)" d="m0 0c3.94 4.31 3.94 4.31 4.25 7.81-0.08 0.72-0.16 1.45-0.25 2.19-1.88-0.12-1.88-0.12-4-1-1.25-3.06-1.25-3.06-2-6h2v-3z" fill="#EA542C"/>
<path transform="translate(963,554)" d="m0 0h3c-1.49 5.45-1.49 5.45-3 11l-2-1c0.19-0.97 0.37-1.94 0.56-2.94 0.15-1.01 0.29-2.02 0.44-3.06l-1-1 2-3z" fill="#FCFBFA"/>
<path transform="translate(760,1202)" d="m0 0c1.56 1.06 1.56 1.06 3 3-0.19 3.62-0.19 3.62-1 7-0.99 0.49-0.99 0.49-2 1-1.05-3.98-0.84-6.98 0-11z" fill="#FAF7F5"/>
<path transform="translate(1082,1126)" d="m0 0c7.75-0.12 7.75-0.12 10 1v2h-10v-3z" fill="#FDFCFC"/>
<path transform="translate(1007,597)" d="m0 0c0.99 0.33 1.98 0.66 3 1-0.99 2.64-1.98 5.28-3 8-0.99-0.33-1.98-0.66-3-1 1.88-6.88 1.88-6.88 3-8z" fill="#EC5B2E"/>
<path transform="translate(714,579)" d="m0 0c1.98 0.5 1.98 0.5 4 1v2c0.99 0.33 1.98 0.66 3 1l-1 3h-3v-2h-2c-1-2-1-2-1-5z" fill="#E64A2A"/>
<path transform="translate(913,531)" d="m0 0h3c0.69 1.81 0.69 1.81 1 4-1.44 1.75-1.44 1.75-3 3 0.99 0.33 1.98 0.66 3 1l-5 2 1-10z" fill="#FDFDFD"/>
</svg>
